<?xml version="1.0" encoding="utf-8"?>
<!-- Generator: Adobe Illustrator 24.3.0, SVG Export Plug-In . SVG Version: 6.00 Build 0)  -->
<svg version="1.1" id="Capa_1" xmlns="http://www.w3.org/2000/svg" xmlns:xlink="http://www.w3.org/1999/xlink" x="0px" y="0px"
	 viewBox="0 0 1976 1139.3" style="enable-background:new 0 0 1976 1139.3;" xml:space="preserve">
<style type="text/css">
	.st0{stroke:#000000;stroke-miterlimit:10;}
	.st1{fill:url(#SVGID_1_);stroke:#000000;stroke-miterlimit:10;}
	.st2{fill:none;}
	.st3{fill:#FFFFF0;}
	.st4{clip-path:url(#SVGID_3_);}
	.st5{display:none;}
	.st6{display:inline;}
	.st7{fill:#FFFFFF;}
</style>
<g id="Capa_1_1_">
	<rect x="0.5" y="0.2" class="st0" width="1975" height="1139.1"/>
	
		<linearGradient id="SVGID_1_" gradientUnits="userSpaceOnUse" x1="987.95" y1="0.7" x2="987.95" y2="494.1" gradientTransform="matrix(1 0 0 -1 0 1140)">
		<stop  offset="0.1899" style="stop-color:#131B26"/>
		<stop  offset="0.4438" style="stop-color:#111822"/>
		<stop  offset="0.7057" style="stop-color:#0B0F15"/>
		<stop  offset="0.9706" style="stop-color:#000101"/>
		<stop  offset="0.9804" style="stop-color:#000000"/>
	</linearGradient>
	<rect x="0.2" y="645.9" class="st1" width="1975.5" height="493.4"/>
	<g>
		<rect x="557.5" y="200.2" class="st2" width="859.2" height="81"/>
		<path class="st3" d="M747.7,210.7c0-1.5,0.5-2.7,1.5-3.7s2.4-1.5,4.1-1.5c1.7,0,3.1,0.5,4.1,1.5s1.5,2.2,1.5,3.7s-0.5,2.8-1.5,3.7
			c-1,1-2.4,1.5-4.1,1.5c-1.7,0-3-0.5-4.1-1.5S747.7,212.3,747.7,210.7z M758.3,258h-10.1v-37.5h10.1V258z"/>
		<path class="st3" d="M778.9,238.7V258h-11.3v-54.7H789c4.1,0,7.7,0.8,10.8,2.3s5.5,3.6,7.2,6.4c1.7,2.8,2.5,5.9,2.5,9.5
			c0,5.4-1.8,9.6-5.5,12.7s-8.8,4.6-15.2,4.6h-9.9V238.7z M778.9,229.5H789c3,0,5.3-0.7,6.8-2.1c1.6-1.4,2.3-3.4,2.3-6
			c0-2.7-0.8-4.9-2.4-6.5s-3.8-2.5-6.5-2.6h-10.3L778.9,229.5L778.9,229.5z"/>
		<path class="st3" d="M827.2,221.7c2.9-3.5,6.5-5.2,10.9-5.2c8.8,0,13.3,5.1,13.4,15.4V258h-10.9v-25.8c0-2.3-0.5-4.1-1.5-5.2
			c-1-1.1-2.7-1.7-5-1.7c-3.2,0-5.5,1.2-6.9,3.7v29h-10.9v-57.8h10.9V221.7z"/>
		<path class="st3" d="M858,237.2c0-4,0.8-7.6,2.3-10.8c1.6-3.2,3.8-5.6,6.7-7.3s6.3-2.6,10.2-2.6c5.5,0,10,1.7,13.4,5
			c3.5,3.4,5.4,7.9,5.8,13.7l0.1,2.8c0,6.2-1.7,11.2-5.2,15s-8.2,5.7-14,5.7s-10.5-1.9-14-5.6c-3.5-3.8-5.2-8.9-5.2-15.3L858,237.2
			L858,237.2z M868.8,238c0,3.9,0.7,6.8,2.2,8.9c1.5,2,3.5,3.1,6.2,3.1c2.6,0,4.7-1,6.2-3s2.2-5.3,2.2-9.7c0-3.8-0.7-6.7-2.2-8.8
			s-3.6-3.1-6.2-3.1c-2.7,0-4.7,1-6.2,3.1C869.5,230.5,868.8,233.7,868.8,238z"/>
		<path class="st3" d="M913.2,217.3l0.3,4.7c2.9-3.6,6.8-5.5,11.7-5.5c4.3,0,7.5,1.3,9.6,3.8s3.2,6.3,3.2,11.4V258h-10.9v-26
			c0-2.3-0.5-4-1.5-5s-2.7-1.6-5-1.6c-3.1,0-5.4,1.3-6.9,3.9V258H903v-40.7H913.2z"/>
		<path class="st3" d="M965,258.7c-6,0-10.8-1.8-14.6-5.5c-3.7-3.7-5.6-8.5-5.6-14.6v-1.1c0-4.1,0.8-7.7,2.4-11s3.8-5.7,6.7-7.4
			s6.2-2.6,9.9-2.6c5.6,0,9.9,1.8,13.1,5.3c3.2,3.5,4.8,8.5,4.8,14.9v4.4h-25.9c0.4,2.7,1.4,4.8,3.2,6.4c1.8,1.6,4,2.4,6.7,2.4
			c4.2,0,7.5-1.5,9.8-4.5l5.3,6c-1.6,2.3-3.8,4.1-6.6,5.4C971.5,258.1,968.4,258.7,965,258.7z M963.8,225.3c-2.2,0-3.9,0.7-5.2,2.2
			s-2.2,3.6-2.6,6.3h15.1v-0.9c-0.1-2.4-0.7-4.3-2-5.6C967.9,225.9,966.1,225.3,963.8,225.3z"/>
		<path class="st3" d="M1033,258h-10.9v-41.9l-13,4v-8.8l22.7-8.1h1.2L1033,258L1033,258z"/>
		<path class="st3" d="M1088.4,258h-37.5v-7.4l17.7-18.9c2.4-2.7,4.2-5,5.4-7c1.2-2,1.7-3.9,1.7-5.6c0-2.4-0.6-4.3-1.8-5.7
			c-1.2-1.4-3-2.1-5.3-2.1c-2.5,0-4.4,0.8-5.8,2.5s-2.1,3.9-2.1,6.7h-10.9c0-3.3,0.8-6.4,2.4-9.1c1.6-2.8,3.8-4.9,6.7-6.5
			c2.9-1.6,6.2-2.3,9.9-2.3c5.6,0,10,1.4,13.1,4.1c3.1,2.7,4.7,6.5,4.7,11.5c0,2.7-0.7,5.5-2.1,8.3s-3.8,6.1-7.2,9.8l-12.4,13.1
			h23.5L1088.4,258L1088.4,258z"/>
		<path class="st3" d="M1126.6,238.7V258h-11.3v-54.7h21.4c4.1,0,7.7,0.8,10.8,2.3c3.1,1.5,5.5,3.6,7.2,6.4c1.7,2.8,2.5,5.9,2.5,9.5
			c0,5.4-1.8,9.6-5.5,12.7s-8.8,4.6-15.2,4.6h-9.9V238.7z M1126.6,229.5h10.1c3,0,5.3-0.7,6.8-2.1c1.6-1.4,2.3-3.4,2.3-6
			c0-2.7-0.8-4.9-2.4-6.5c-1.6-1.7-3.8-2.5-6.5-2.6h-10.3V229.5z"/>
		<path class="st3" d="M1187.2,227.5c-1.5-0.2-2.8-0.3-3.9-0.3c-4.1,0-6.8,1.4-8.1,4.2V258h-10.9v-40.7h10.3l0.3,4.9
			c2.2-3.7,5.2-5.6,9.1-5.6c1.2,0,2.3,0.2,3.4,0.5L1187.2,227.5z"/>
		<path class="st3" d="M1189.3,237.2c0-4,0.8-7.6,2.3-10.8c1.6-3.2,3.8-5.6,6.7-7.3s6.3-2.6,10.2-2.6c5.5,0,10,1.7,13.4,5
			c3.5,3.4,5.4,7.9,5.8,13.7l0.1,2.8c0,6.2-1.7,11.2-5.2,15s-8.2,5.7-14,5.7s-10.5-1.9-14-5.6c-3.5-3.8-5.2-8.9-5.2-15.3v-0.6
			H1189.3z M1200.2,238c0,3.9,0.7,6.8,2.2,8.9c1.5,2,3.5,3.1,6.2,3.1c2.6,0,4.7-1,6.2-3s2.2-5.3,2.2-9.7c0-3.8-0.7-6.7-2.2-8.8
			s-3.6-3.1-6.2-3.1c-2.7,0-4.7,1-6.2,3.1C1200.9,230.5,1200.2,233.7,1200.2,238z"/>
	</g>
	<g>
		<rect x="557.5" y="281.2" class="st2" width="859.2" height="149.3"/>
		<path class="st3" d="M785,282.8v19.4c0,1.9-0.4,3.6-1.3,5c-0.8,1.4-2,2.5-3.5,3.3s-3.3,1.1-5.2,1.1c-3,0-5.4-0.8-7.2-2.5
			c-1.8-1.6-2.7-3.9-2.8-6.8v-19.6h2.4V302c0,2.4,0.7,4.3,2.1,5.6c1.4,1.3,3.2,2,5.6,2s4.2-0.7,5.6-2c1.4-1.3,2-3.2,2-5.5v-19.3
			L785,282.8L785,282.8z"/>
		<path class="st3" d="M793.4,290.1l0.1,3.6c0.8-1.3,1.8-2.3,3-3s2.5-1,3.9-1c2.3,0,4,0.6,5.1,1.9s1.7,3.2,1.7,5.7v13.9h-2.3v-13.9
			c0-1.9-0.4-3.3-1.2-4.2c-0.8-0.9-2-1.4-3.8-1.4c-1.4,0-2.7,0.5-3.8,1.4s-1.9,2.1-2.5,3.7v14.5h-2.3v-21.1h2.1V290.1z"/>
		<path class="st3" d="M835.5,305.9c0-1.2-0.5-2.1-1.4-2.8c-0.9-0.7-2.3-1.3-4.2-1.7c-1.9-0.4-3.3-0.9-4.4-1.4
			c-1-0.5-1.8-1.1-2.3-1.9c-0.5-0.7-0.8-1.6-0.8-2.7c0-1.7,0.7-3,2.1-4.1c1.4-1.1,3.2-1.6,5.4-1.6c2.4,0,4.2,0.6,5.7,1.7
			c1.4,1.2,2.1,2.7,2.1,4.6h-2.3c0-1.2-0.5-2.3-1.6-3.1s-2.3-1.2-3.9-1.2c-1.5,0-2.8,0.3-3.7,1s-1.4,1.6-1.4,2.7s0.4,1.9,1.2,2.5
			s2.2,1.1,4.2,1.6c2.1,0.5,3.6,1,4.6,1.5s1.8,1.2,2.3,2s0.7,1.7,0.7,2.8c0,1.8-0.7,3.2-2.2,4.3c-1.4,1.1-3.3,1.6-5.6,1.6
			c-2.5,0-4.5-0.6-6-1.8c-1.5-1.2-2.3-2.7-2.3-4.5h2.3c0.1,1.4,0.7,2.4,1.7,3.2c1.1,0.8,2.5,1.1,4.2,1.1c1.6,0,2.9-0.4,3.9-1.1
			C835,307.9,835.5,307,835.5,305.9z"/>
		<path class="st3" d="M856.4,311.2c-0.2-0.7-0.4-1.6-0.4-2.9c-0.8,1.1-1.9,1.9-3.1,2.5s-2.6,0.9-4,0.9c-2,0-3.7-0.6-4.9-1.7
			c-1.3-1.1-1.9-2.6-1.9-4.3c0-2.1,0.9-3.7,2.6-4.9c1.7-1.2,4.1-1.8,7.2-1.8h4.2v-2.4c0-1.5-0.5-2.7-1.4-3.6s-2.3-1.3-4.1-1.3
			c-1.6,0-3,0.4-4,1.2c-1.1,0.8-1.6,1.8-1.6,3h-2.3c0-1.7,0.8-3.1,2.3-4.4s3.5-1.8,5.8-1.8c2.4,0,4.2,0.6,5.6,1.8
			c1.4,1.2,2.1,2.8,2.1,4.9v10c0,2,0.2,3.6,0.6,4.6v0.2L856.4,311.2L856.4,311.2z M849.1,309.5c1.6,0,3-0.4,4.2-1.1
			c1.2-0.8,2.1-1.8,2.7-3v-4.6h-4.2c-2.3,0-4.2,0.5-5.5,1.3s-2,2-2,3.4c0,1.2,0.4,2.2,1.3,2.9S847.7,309.5,849.1,309.5z"/>
		<path class="st3" d="M867.1,311.2h-2.3v-30h2.3V311.2z"/>
		<path class="st3" d="M877.1,284.7v5.4h4.4v1.9h-4.4v14.1c0,1.2,0.2,2,0.6,2.6c0.4,0.6,1.1,0.9,2.1,0.9c0.4,0,1-0.1,1.9-0.2
			l0.1,1.9c-0.6,0.2-1.4,0.3-2.5,0.3c-1.6,0-2.8-0.5-3.5-1.4s-1.1-2.3-1.1-4.1V292h-3.9v-1.9h3.9v-5.4H877.1z"/>
		<path class="st3" d="M884.7,300.4c0-2,0.4-3.9,1.2-5.5s1.9-2.9,3.3-3.8c1.4-0.9,3.1-1.4,4.9-1.4c2.8,0,5.1,1,6.8,3
			s2.6,4.6,2.6,7.8v0.5c0,2-0.4,3.9-1.2,5.5s-1.9,2.9-3.3,3.8c-1.4,0.9-3.1,1.3-4.9,1.3c-2.8,0-5.1-1-6.8-3c-1.8-2-2.6-4.6-2.6-7.8
			V300.4z M887,301c0,2.5,0.7,4.6,2,6.2s3,2.4,5.1,2.4s3.8-0.8,5.1-2.4s2-3.8,2-6.4v-0.4c0-1.6-0.3-3.1-0.9-4.4
			c-0.6-1.3-1.4-2.4-2.5-3.1s-2.3-1.1-3.7-1.1c-2.1,0-3.8,0.8-5.1,2.5c-1.3,1.6-2,3.8-2,6.4L887,301L887,301z"/>
		<path class="st3" d="M931.4,311.2c-0.2-0.7-0.4-1.6-0.4-2.9c-0.8,1.1-1.9,1.9-3.1,2.5s-2.6,0.9-4,0.9c-2,0-3.7-0.6-4.9-1.7
			c-1.3-1.1-1.9-2.6-1.9-4.3c0-2.1,0.9-3.7,2.6-4.9c1.7-1.2,4.1-1.8,7.2-1.8h4.2v-2.4c0-1.5-0.5-2.7-1.4-3.6s-2.3-1.3-4.1-1.3
			c-1.6,0-3,0.4-4,1.2c-1.1,0.8-1.6,1.8-1.6,3h-2.3c0-1.7,0.8-3.1,2.3-4.4s3.5-1.8,5.8-1.8c2.4,0,4.2,0.6,5.6,1.8
			c1.4,1.2,2.1,2.8,2.1,4.9v10c0,2,0.2,3.6,0.6,4.6v0.2L931.4,311.2L931.4,311.2z M924.1,309.5c1.6,0,3-0.4,4.2-1.1
			c1.2-0.8,2.1-1.8,2.7-3v-4.6h-4.2c-2.3,0-4.2,0.5-5.5,1.3s-2,2-2,3.4c0,1.2,0.4,2.2,1.3,2.9S922.7,309.5,924.1,309.5z"/>
		<path class="st3" d="M942.1,311.2h-2.3v-30h2.3V311.2z"/>
		<path class="st3" d="M970.9,305.9c0-1.2-0.5-2.1-1.4-2.8c-0.9-0.7-2.3-1.3-4.2-1.7c-1.9-0.4-3.3-0.9-4.4-1.4
			c-1-0.5-1.8-1.1-2.3-1.9c-0.5-0.7-0.8-1.6-0.8-2.7c0-1.7,0.7-3,2.1-4.1c1.4-1.1,3.2-1.6,5.4-1.6c2.4,0,4.2,0.6,5.7,1.7
			c1.4,1.2,2.1,2.7,2.1,4.6h-2.3c0-1.2-0.5-2.3-1.6-3.1s-2.3-1.2-3.9-1.2c-1.5,0-2.8,0.3-3.7,1s-1.4,1.6-1.4,2.7s0.4,1.9,1.2,2.5
			s2.2,1.1,4.2,1.6c2.1,0.5,3.6,1,4.6,1.5s1.8,1.2,2.3,2s0.7,1.7,0.7,2.8c0,1.8-0.7,3.2-2.2,4.3c-1.4,1.1-3.3,1.6-5.6,1.6
			c-2.5,0-4.5-0.6-6-1.8c-1.5-1.2-2.3-2.7-2.3-4.5h2.3c0.1,1.4,0.7,2.4,1.7,3.2c1.1,0.8,2.5,1.1,4.2,1.1c1.6,0,2.9-0.4,3.9-1.1
			C970.4,307.9,970.9,307,970.9,305.9z"/>
		<path class="st3" d="M978.3,284c0-0.4,0.1-0.8,0.4-1.1c0.3-0.3,0.7-0.5,1.2-0.5s0.9,0.2,1.2,0.5s0.4,0.7,0.4,1.1s-0.1,0.8-0.4,1.1
			s-0.7,0.4-1.2,0.4s-0.9-0.1-1.2-0.4C978.5,284.8,978.3,284.4,978.3,284z M981.1,311.2h-2.3v-21.1h2.3V311.2z"/>
		<path class="st3" d="M986.5,300.5c0-3.3,0.7-5.9,2.2-7.9s3.5-2.9,6-2.9c2.9,0,5.1,1.1,6.6,3.4l0.1-3h2.2v20.7
			c0,2.7-0.8,4.9-2.3,6.5s-3.6,2.4-6.2,2.4c-1.5,0-2.9-0.3-4.2-1s-2.4-1.5-3.2-2.6l1.3-1.4c1.7,2,3.6,3,5.9,3c2,0,3.5-0.6,4.6-1.7
			s1.7-2.8,1.7-4.8v-2.7c-1.5,2.1-3.7,3.1-6.5,3.1c-2.4,0-4.4-1-5.9-2.9s-2.2-4.6-2.2-7.9L986.5,300.5L986.5,300.5z M988.8,300.9
			c0,2.7,0.5,4.8,1.6,6.4s2.6,2.3,4.6,2.3c2.9,0,4.9-1.3,6.1-3.9v-9.8c-0.5-1.4-1.3-2.4-2.4-3.1c-1-0.7-2.3-1.1-3.7-1.1
			c-2,0-3.5,0.8-4.6,2.3C989.4,295.6,988.8,297.9,988.8,300.9z"/>
		<path class="st3" d="M1023.2,308.6c-1.4,2-3.7,3.1-6.7,3.1c-2.3,0-4-0.7-5.1-2s-1.8-3.2-1.8-5.8v-13.8h2.3v13.5c0,4,1.6,6,4.9,6
			c3.4,0,5.5-1.4,6.4-4.2v-15.3h2.3v21.1h-2.3L1023.2,308.6z"/>
		<path class="st3" d="M1031.4,284c0-0.4,0.1-0.8,0.4-1.1c0.3-0.3,0.7-0.5,1.2-0.5s0.9,0.2,1.2,0.5c0.3,0.3,0.4,0.7,0.4,1.1
			s-0.1,0.8-0.4,1.1s-0.7,0.4-1.2,0.4s-0.9-0.1-1.2-0.4S1031.4,284.4,1031.4,284z M1034.2,311.2h-2.3v-21.1h2.3V311.2z"/>
		<path class="st3" d="M1048.7,311.6c-1.8,0-3.4-0.4-4.9-1.3s-2.6-2.1-3.4-3.7s-1.2-3.4-1.2-5.3v-0.8c0-2,0.4-3.9,1.2-5.5
			c0.8-1.6,1.9-2.9,3.3-3.8s2.9-1.4,4.6-1.4c2.6,0,4.6,0.9,6.1,2.6c1.5,1.8,2.3,4.1,2.3,7.2v1.3h-15.1v0.4c0,2.4,0.7,4.4,2.1,6
			s3.1,2.4,5.2,2.4c1.2,0,2.4-0.2,3.3-0.7c1-0.5,1.8-1.2,2.6-2.2l1.5,1.1C1054.5,310.4,1052,311.6,1048.7,311.6z M1048.3,291.7
			c-1.8,0-3.2,0.6-4.4,1.9s-1.9,3-2.2,5.2h12.7v-0.3c-0.1-2-0.6-3.7-1.7-5C1051.5,292.3,1050.1,291.7,1048.3,291.7z"/>
		<path class="st3" d="M1063.4,290.1l0.1,3.6c0.8-1.3,1.8-2.3,3-3s2.5-1,3.9-1c2.3,0,4,0.6,5.1,1.9s1.7,3.2,1.7,5.7v13.9h-2.3v-13.9
			c0-1.9-0.4-3.3-1.2-4.2c-0.8-0.9-2-1.4-3.8-1.4c-1.4,0-2.7,0.5-3.8,1.4c-1.1,0.9-1.9,2.1-2.5,3.7v14.5h-2.3v-21.1h2.1V290.1z"/>
		<path class="st3" d="M1086.8,284.7v5.4h4.4v1.9h-4.4v14.1c0,1.2,0.2,2,0.6,2.6s1.1,0.9,2.1,0.9c0.4,0,1-0.1,1.9-0.2l0.1,1.9
			c-0.6,0.2-1.4,0.3-2.5,0.3c-1.6,0-2.8-0.5-3.5-1.4s-1.1-2.3-1.1-4.1V292h-3.9v-1.9h3.9v-5.4H1086.8z"/>
		<path class="st3" d="M1104.2,311.6c-1.8,0-3.4-0.4-4.9-1.3s-2.6-2.1-3.4-3.7s-1.2-3.4-1.2-5.3v-0.8c0-2,0.4-3.9,1.2-5.5
			c0.8-1.6,1.9-2.9,3.3-3.8s2.9-1.4,4.6-1.4c2.6,0,4.6,0.9,6.1,2.6c1.5,1.8,2.3,4.1,2.3,7.2v1.3h-15.1v0.4c0,2.4,0.7,4.4,2.1,6
			s3.1,2.4,5.2,2.4c1.2,0,2.4-0.2,3.3-0.7c1-0.5,1.8-1.2,2.6-2.2l1.5,1.1C1110,310.4,1107.5,311.6,1104.2,311.6z M1103.8,291.7
			c-1.8,0-3.2,0.6-4.4,1.9s-1.9,3-2.2,5.2h12.7v-0.3c-0.1-2-0.6-3.7-1.7-5C1107,292.3,1105.6,291.7,1103.8,291.7z"/>
		<path class="st3" d="M1128.7,290.1l0.1,3.6c0.8-1.3,1.8-2.3,3-3s2.5-1,3.9-1c2.3,0,4,0.6,5.1,1.9s1.7,3.2,1.7,5.7v13.9h-2.3v-13.9
			c0-1.9-0.4-3.3-1.2-4.2c-0.8-0.9-2-1.4-3.8-1.4c-1.4,0-2.7,0.5-3.8,1.4c-1.1,0.9-1.9,2.1-2.5,3.7v14.5h-2.3v-21.1h2.1V290.1z"/>
		<path class="st3" d="M1148.3,284c0-0.4,0.1-0.8,0.4-1.1c0.3-0.3,0.7-0.5,1.2-0.5s0.9,0.2,1.2,0.5c0.3,0.3,0.4,0.7,0.4,1.1
			s-0.1,0.8-0.4,1.1s-0.7,0.4-1.2,0.4s-0.9-0.1-1.2-0.4S1148.3,284.4,1148.3,284z M1151,311.2h-2.3v-21.1h2.3V311.2z"/>
		<path class="st3" d="M1163.9,308l6.4-17.9h2.4l-7.9,21.1h-1.9l-7.9-21.1h2.4L1163.9,308z"/>
		<path class="st3" d="M1184.5,311.6c-1.8,0-3.4-0.4-4.9-1.3s-2.6-2.1-3.4-3.7s-1.2-3.4-1.2-5.3v-0.8c0-2,0.4-3.9,1.2-5.5
			c0.8-1.6,1.9-2.9,3.3-3.8s2.9-1.4,4.6-1.4c2.6,0,4.6,0.9,6.1,2.6c1.5,1.8,2.3,4.1,2.3,7.2v1.3h-15.1v0.4c0,2.4,0.7,4.4,2.1,6
			s3.1,2.4,5.2,2.4c1.2,0,2.4-0.2,3.3-0.7c1-0.5,1.8-1.2,2.6-2.2l1.5,1.1C1190.3,310.4,1187.8,311.6,1184.5,311.6z M1184.1,291.7
			c-1.8,0-3.2,0.6-4.4,1.9s-1.9,3-2.2,5.2h12.7v-0.3c-0.1-2-0.6-3.7-1.7-5C1187.3,292.3,1185.9,291.7,1184.1,291.7z"/>
		<path class="st3" d="M1199.6,311.2h-2.3v-30h2.3V311.2z"/>
	</g>
	<g>
		<rect x="557.5" y="857.9" class="st2" width="859.2" height="149.3"/>
		<path class="st3" d="M619.3,859.4l6,24.2l14.4-24.2h1.4l-4.4,25.6h-0.9l4.2-24l-14.4,24h-0.7l-6.1-24.1l-4.2,24.1h-0.9l4.4-25.6
			H619.3z"/>
		<path class="st3" d="M655.5,884.9l0.6-3.1c-0.8,1.1-1.8,2-3,2.6s-2.5,0.9-3.9,0.9c-1.5,0-2.6-0.4-3.5-1.2s-1.4-1.9-1.5-3.4
			c-0.1-0.9,0-1.9,0.1-2.9l2.1-12h0.9l-2.1,12.1c-0.1,0.8-0.2,1.6-0.1,2.3c0.1,1.3,0.4,2.2,1.1,2.9s1.7,1,2.9,1
			c1.7,0,3.3-0.5,4.6-1.4s2.3-2.1,2.7-3.6l2.3-13.4h1l-3.3,19h-0.9V884.9z"/>
		<path class="st3" d="M668.3,883.5l0.2-0.4l9.4-17.2h1.1l-12,22.2c-0.9,1.6-1.7,2.8-2.6,3.5s-1.9,1-3,1c-0.4,0-0.9-0.1-1.4-0.2
			l0.1-0.9c0.6,0.1,1,0.2,1.2,0.2c1.6,0,2.9-0.9,4-2.6l0.7-1.2l1.7-3.2l-4.1-18.8h1L668.3,883.5z"/>
		<path class="st3" d="M695.1,885.3c-1.3,0-2.5-0.3-3.5-0.9s-1.7-1.4-2.2-2.4l-1.8,10.3h-0.9l4.5-26.3h0.9l-0.7,3.4
			c0.8-1.1,1.8-2,3-2.7s2.5-1,3.9-1c1.2,0,2.3,0.3,3.1,0.9s1.5,1.5,1.9,2.7s0.6,2.5,0.5,3.9c0,0.8-0.1,1.5-0.2,2.2l-0.2,1.2
			c-0.6,2.8-1.7,4.9-3.1,6.5S697.1,885.3,695.1,885.3z M702.7,875.2l0.2-1.9c0.1-2.2-0.2-3.9-1-5.1s-2-1.7-3.6-1.7
			c-1.5,0-3,0.5-4.4,1.4s-2.3,2.1-2.8,3.4l-1.6,8.9c0.3,1.3,0.9,2.3,1.9,3.1s2.2,1.1,3.6,1.1c1.9,0,3.5-0.8,4.8-2.3s2.2-3.7,2.8-6.5
			L702.7,875.2z"/>
		<path class="st3" d="M718.5,866.6l-1.1-0.1c-1.6,0-3,0.6-4.4,1.7s-2.2,2.6-2.7,4.2l-2.2,12.5h-0.9l3.3-19h0.9l-0.7,4
			c0.8-1.4,1.8-2.4,2.9-3.2s2.4-1.1,3.8-1.1c0.4,0,0.9,0.1,1.3,0.2L718.5,866.6z"/>
		<path class="st3" d="M718.9,875.1c0.3-1.8,0.9-3.4,1.8-4.8s2-2.6,3.3-3.4s2.8-1.2,4.4-1.2c1.3,0,2.4,0.3,3.4,0.9s1.8,1.4,2.4,2.6
			s0.9,2.4,1,3.8c0,0.8,0,1.8-0.2,3.1c-0.3,1.8-0.9,3.4-1.8,4.9s-2,2.6-3.3,3.4s-2.8,1.2-4.4,1.2c-1.3,0-2.4-0.3-3.4-0.9
			s-1.8-1.4-2.4-2.5s-0.9-2.4-1-3.8C718.7,877.3,718.8,876.3,718.9,875.1z M719.8,878.8c0.2,1.7,0.9,3,1.9,4s2.3,1.5,3.9,1.5
			c1.8,0,3.5-0.6,5-1.9s2.6-3,3.2-5.2c0.5-1.8,0.7-3.5,0.5-5.2c-0.3-1.7-0.9-3-1.9-4s-2.3-1.5-3.8-1.5c-1.8,0-3.5,0.7-5,2
			s-2.6,3-3.2,5.2C719.7,875.5,719.5,877.2,719.8,878.8z"/>
		<path class="st3" d="M741.4,870.4c0.9-1.5,2.1-2.7,3.4-3.5s2.6-1.2,4-1.2c1.5,0,2.6,0.4,3.4,1.1s1.3,1.8,1.4,3.3
			c0.1,0.9,0,1.8-0.1,2.8l-2.1,12.2h-0.9l2.1-12.2c0.1-0.8,0.2-1.6,0.2-2.4c-0.1-1.2-0.4-2.2-1.1-2.8s-1.6-1-2.9-1
			c-1.6,0-3.1,0.6-4.6,1.9s-2.5,2.7-3,4.4l-2.1,12.2H738l3.3-19h0.9L741.4,870.4z"/>
		<path class="st3" d="M763.6,860.8l-0.9,5.1h4.2l-0.1,0.9h-4.2l-2.4,13.9l-0.1,1c0,0.8,0.1,1.4,0.5,1.9s0.9,0.7,1.7,0.7
			c0.3,0,1-0.1,1.9-0.2v0.9c-0.5,0.1-1.2,0.2-1.9,0.2c-2,0-3-1-3.1-3.1c0-0.6,0-1.2,0.1-1.8l2.3-13.5h-3.4l0.1-0.9h3.4l0.9-5.1
			L763.6,860.8L763.6,860.8z"/>
		<path class="st3" d="M768.5,875.1c0.3-1.8,0.9-3.4,1.8-4.8s2-2.6,3.3-3.4s2.8-1.2,4.4-1.2c1.3,0,2.4,0.3,3.4,0.9s1.8,1.4,2.4,2.6
			s0.9,2.4,1,3.8c0,0.8,0,1.8-0.2,3.1c-0.3,1.8-0.9,3.4-1.8,4.9s-2,2.6-3.3,3.4s-2.8,1.2-4.4,1.2c-1.3,0-2.4-0.3-3.4-0.9
			s-1.8-1.4-2.4-2.5s-0.9-2.4-1-3.8C768.2,877.3,768.3,876.3,768.5,875.1z M769.3,878.8c0.2,1.7,0.9,3,1.9,4s2.3,1.5,3.9,1.5
			c1.8,0,3.5-0.6,5-1.9s2.6-3,3.2-5.2c0.5-1.8,0.7-3.5,0.5-5.2c-0.3-1.7-0.9-3-1.9-4s-2.3-1.5-3.8-1.5c-1.8,0-3.5,0.7-5,2
			s-2.6,3-3.2,5.2C769.2,875.5,769.1,877.2,769.3,878.8z"/>
		<path class="st3" d="M796.9,875.2c0.3-1.9,0.9-3.6,1.7-5.1s1.8-2.6,3-3.4s2.4-1.1,3.8-1.1c1.3,0,2.5,0.3,3.5,1s1.7,1.6,2.2,2.8
			l2-11.5h0.9l-4.7,27h-0.9l0.6-3c-0.8,1.1-1.9,1.9-3,2.5s-2.4,0.9-3.8,0.9c-1.2,0-2.3-0.3-3.1-0.9s-1.5-1.5-1.9-2.7
			s-0.6-2.5-0.5-3.9C796.7,877.1,796.8,876.2,796.9,875.2z M797.7,877.5c-0.1,1.3,0,2.5,0.3,3.6s0.8,1.9,1.5,2.5s1.6,0.9,2.7,0.9
			c1.5,0,2.9-0.4,4.1-1.1s2.2-1.7,3-3l1.6-8.9c-0.2-1.5-0.8-2.7-1.8-3.5s-2.1-1.3-3.6-1.3s-2.8,0.5-4,1.5s-2.1,2.4-2.7,4.1
			S797.8,875.7,797.7,877.5z"/>
		<path class="st3" d="M816.6,884.9h-0.9l3.3-19h0.9L816.6,884.9z M819.4,859.9c0-0.2,0.2-0.5,0.4-0.7s0.4-0.3,0.7-0.3
			s0.5,0.1,0.7,0.3s0.2,0.4,0.2,0.7c0,0.2-0.2,0.4-0.4,0.6s-0.5,0.3-0.7,0.3c-0.3,0-0.5-0.1-0.7-0.3S819.4,860.2,819.4,859.9z"/>
		<path class="st3" d="M835.1,880.3c0.4-2.2-1.2-3.8-4.8-4.7l-2-0.6c-2.7-0.9-3.9-2.4-3.6-4.7c0.2-1.4,1-2.6,2.3-3.5
			s2.8-1.3,4.6-1.3c1.9,0,3.4,0.5,4.5,1.5s1.5,2.3,1.4,4h-0.9c0.1-1.3-0.3-2.4-1.2-3.2s-2.2-1.2-3.7-1.2s-2.8,0.3-3.9,1
			s-1.8,1.6-2,2.8c-0.4,1.9,0.7,3.2,3.2,4l2.6,0.8l0.9,0.3c2.7,1,3.9,2.6,3.6,4.9c-0.2,1.5-1,2.7-2.4,3.6s-3,1.4-4.8,1.4
			c-2,0-3.5-0.5-4.7-1.4s-1.7-2.2-1.5-3.8h0.9c-0.1,1.3,0.4,2.3,1.3,3.1s2.2,1.1,3.9,1.1c1.6,0,3-0.4,4.2-1.2
			S834.9,881.5,835.1,880.3z"/>
		<path class="st3" d="M847.5,885.3c-1.3,0-2.5-0.3-3.5-0.9s-1.7-1.4-2.2-2.4l-1.8,10.3h-1l4.5-26.3h0.9l-0.7,3.4
			c0.8-1.1,1.8-2,3-2.7s2.5-1,3.9-1c1.2,0,2.3,0.3,3.1,0.9s1.5,1.5,1.9,2.7s0.6,2.5,0.5,3.9c0,0.8-0.1,1.5-0.2,2.2l-0.2,1.2
			c-0.6,2.8-1.7,4.9-3.1,6.5S849.5,885.3,847.5,885.3z M855.1,875.2l0.2-1.9c0.1-2.2-0.2-3.9-1-5.1s-2-1.7-3.6-1.7
			c-1.5,0-3,0.5-4.4,1.4s-2.3,2.1-2.8,3.4l-1.6,8.9c0.3,1.3,0.9,2.3,1.9,3.1s2.2,1.1,3.6,1.1c1.9,0,3.5-0.8,4.8-2.3s2.2-3.7,2.8-6.5
			L855.1,875.2z"/>
		<path class="st3" d="M859.9,875.1c0.3-1.8,0.9-3.4,1.8-4.8s2-2.6,3.3-3.4s2.8-1.2,4.4-1.2c1.3,0,2.4,0.3,3.4,0.9s1.8,1.4,2.4,2.6
			s0.9,2.4,1,3.8c0,0.8,0,1.8-0.2,3.1c-0.3,1.8-0.9,3.4-1.8,4.9s-2,2.6-3.3,3.4s-2.8,1.2-4.4,1.2c-1.3,0-2.4-0.3-3.4-0.9
			s-1.8-1.4-2.4-2.5s-0.9-2.4-1-3.8C859.6,877.3,859.7,876.3,859.9,875.1z M860.7,878.8c0.2,1.7,0.9,3,1.9,4s2.3,1.5,3.9,1.5
			c1.8,0,3.5-0.6,5-1.9s2.6-3,3.2-5.2c0.5-1.8,0.7-3.5,0.5-5.2c-0.3-1.7-0.9-3-1.9-4s-2.3-1.5-3.8-1.5c-1.8,0-3.5,0.7-5,2
			s-2.6,3-3.2,5.2C860.6,875.5,860.5,877.2,860.7,878.8z"/>
		<path class="st3" d="M882.4,870.4c0.9-1.5,2.1-2.7,3.4-3.5s2.6-1.2,4-1.2c1.5,0,2.6,0.4,3.4,1.1s1.3,1.8,1.4,3.3
			c0.1,0.9,0,1.8-0.1,2.8l-2.1,12.2h-0.9l2.1-12.2c0.1-0.8,0.2-1.6,0.2-2.4c-0.1-1.2-0.4-2.2-1.1-2.8s-1.6-1-2.9-1
			c-1.6,0-3.1,0.6-4.6,1.9s-2.5,2.7-3,4.4l-2.1,12.2H879l3.3-19h0.9L882.4,870.4z"/>
		<path class="st3" d="M899.4,884.9h-0.9l3.3-19h0.9L899.4,884.9z M902.3,859.9c0-0.2,0.2-0.5,0.4-0.7s0.4-0.3,0.7-0.3
			s0.5,0.1,0.7,0.3s0.2,0.4,0.2,0.7c0,0.2-0.2,0.4-0.4,0.6s-0.5,0.3-0.7,0.3c-0.3,0-0.5-0.1-0.7-0.3S902.3,860.2,902.3,859.9z"/>
		<path class="st3" d="M912.8,885.3c-1.3,0-2.5-0.3-3.5-0.9s-1.8-1.4-2.3-2.5l-0.5,3h-0.9l4.7-27h0.9l-2,11.4
			c0.9-1.2,1.9-2.2,3.1-2.8s2.4-1,3.8-1c1.2,0,2.3,0.3,3.1,0.9s1.5,1.5,1.9,2.7s0.6,2.5,0.5,3.9c0,0.8-0.1,1.5-0.2,2.2l-0.2,1.2
			c-0.6,2.8-1.7,4.9-3.1,6.5S914.8,885.3,912.8,885.3z M920.4,875.2l0.2-1.9c0.1-1.3,0-2.5-0.3-3.6s-0.8-1.9-1.6-2.5
			s-1.6-0.8-2.7-0.8c-1.6,0-3,0.5-4.4,1.4s-2.3,2.1-2.8,3.5l-1.6,8.7c0.3,1.4,0.9,2.4,1.9,3.1s2.2,1.1,3.6,1.1
			c1.9,0,3.5-0.8,4.8-2.3s2.2-3.7,2.7-6.4L920.4,875.2z"/>
		<path class="st3" d="M926.1,884.9h-0.9l4.6-27h0.9L926.1,884.9z"/>
		<path class="st3" d="M939.2,885.3c-1.5,0-2.8-0.4-3.9-1.3s-1.9-2-2.4-3.5s-0.6-3-0.4-4.7l0.1-0.9c0.3-1.7,0.9-3.3,1.8-4.8
			s2-2.6,3.3-3.4s2.6-1.2,4.1-1.2c1.9,0,3.4,0.7,4.5,2.1s1.6,3.2,1.4,5.4l-0.1,0.5l-0.2,1.1h-13.8l-0.2,1c-0.2,1-0.2,2,0,3
			c0.3,1.7,0.9,3,1.9,4s2.3,1.5,3.8,1.5c2.2,0,4.2-0.8,5.9-2.6l0.6,0.5C944,884.3,941.8,885.3,939.2,885.3z M941.8,866.5
			c-1.8,0-3.4,0.7-4.8,2s-2.5,3.1-3.2,5.3h12.8l0.1-0.2c0.2-0.8,0.2-1.7,0-2.5c-0.2-1.4-0.8-2.5-1.6-3.3S943.1,866.5,941.8,866.5z"
			/>
		<path class="st3" d="M965.5,885.3c-1.5,0-2.8-0.4-3.9-1.3s-1.9-2-2.4-3.5s-0.6-3-0.4-4.7l0.1-0.9c0.3-1.7,0.9-3.3,1.8-4.8
			s2-2.6,3.3-3.4s2.6-1.2,4.1-1.2c1.9,0,3.4,0.7,4.5,2.1s1.6,3.2,1.4,5.4l-0.1,0.5l-0.2,1.1H960l-0.2,1c-0.2,1-0.2,2,0,3
			c0.3,1.7,0.9,3,1.9,4s2.3,1.5,3.8,1.5c2.2,0,4.2-0.8,5.9-2.6l0.6,0.5C970.3,884.3,968.1,885.3,965.5,885.3z M968.1,866.5
			c-1.8,0-3.4,0.7-4.8,2s-2.5,3.1-3.2,5.3h12.8l0.1-0.2c0.2-0.8,0.2-1.7,0-2.5c-0.2-1.4-0.8-2.5-1.6-3.3S969.4,866.5,968.1,866.5z"
			/>
		<path class="st3" d="M979.7,870.4c0.9-1.5,2.1-2.7,3.4-3.5s2.6-1.2,4-1.2c1.5,0,2.6,0.4,3.4,1.1c0.8,0.8,1.3,1.8,1.4,3.3
			c0.1,0.9,0,1.8-0.1,2.8l-2.1,12.2h-0.9l2.1-12.2c0.1-0.8,0.2-1.6,0.2-2.4c-0.1-1.2-0.4-2.2-1.1-2.8s-1.6-1-2.9-1
			c-1.6,0-3.1,0.6-4.6,1.9s-2.5,2.7-3,4.4l-2.1,12.2h-0.9l3.3-19h0.9L979.7,870.4z"/>
		<path class="st3" d="M1011.9,871.5l-4.7,3.8l-1.7,9.6h-0.9l4.4-25.6h0.9l-2.5,14.7l4.7-4l12.2-10.7h1.5l-13.1,11.5l9.5,14h-1.2
			L1011.9,871.5z"/>
		<path class="st3" d="M1027.7,884.9h-0.9l3.3-19h0.9L1027.7,884.9z M1030.5,859.9c0-0.2,0.2-0.5,0.4-0.7s0.4-0.3,0.7-0.3
			c0.3,0,0.5,0.1,0.7,0.3s0.2,0.4,0.2,0.7c0,0.2-0.2,0.4-0.4,0.6s-0.5,0.3-0.7,0.3c-0.3,0-0.5-0.1-0.7-0.3
			S1030.5,860.2,1030.5,859.9z"/>
		<path class="st3" d="M1037.2,870.4c0.9-1.5,2.1-2.7,3.4-3.5s2.6-1.2,4-1.2c1.5,0,2.6,0.4,3.4,1.1s1.3,1.8,1.4,3.3
			c0.1,0.9,0,1.8-0.1,2.8l-2.1,12.2h-0.9l2.1-12.2c0.1-0.8,0.2-1.6,0.2-2.4c-0.1-1.2-0.4-2.2-1.1-2.8s-1.6-1-2.9-1
			c-1.6,0-3.1,0.6-4.6,1.9s-2.5,2.7-3,4.4l-2.1,12.2h-0.9l3.3-19h0.9L1037.2,870.4z"/>
		<path class="st3" d="M1053.9,875.2c0.3-1.9,0.9-3.6,1.7-5.1s1.8-2.6,3-3.4s2.4-1.1,3.8-1.1s2.5,0.3,3.5,1s1.7,1.6,2.1,2.8l0.6-3.5
			h0.9l-3.1,18.4c-0.4,2.6-1.4,4.7-2.9,6.1s-3.3,2.2-5.4,2.2c-2.4,0-4.3-1.1-5.6-3.2l0.7-0.6c1.2,1.9,2.8,2.9,4.8,2.9
			c1.8,0,3.4-0.6,4.7-1.9s2.2-3,2.6-5.2l0.5-2.6c-0.8,1.1-1.8,1.9-3,2.5s-2.4,0.9-3.8,0.9c-1.2,0-2.3-0.3-3.1-0.9s-1.5-1.5-1.9-2.7
			s-0.6-2.5-0.5-3.9C1053.7,877.1,1053.8,876.2,1053.9,875.2z M1054.6,877.5c-0.2,2.1,0.2,3.8,1,5s2,1.8,3.6,1.8
			c1.5,0,2.9-0.4,4.1-1.1s2.2-1.8,3-3.1l1.5-8.6c-0.2-1.6-0.8-2.8-1.7-3.7s-2.1-1.3-3.6-1.3s-2.8,0.5-4,1.5s-2.1,2.4-2.7,4.1
			S1054.7,875.7,1054.6,877.5z"/>
		<path class="st3" d="M1073.3,875.2c0.3-1.9,0.9-3.6,1.7-5.1s1.8-2.6,3-3.4s2.4-1.1,3.8-1.1c1.3,0,2.5,0.3,3.5,1s1.7,1.6,2.2,2.8
			l2-11.5h0.9l-4.7,27h-0.9l0.6-3c-0.8,1.1-1.9,1.9-3,2.5s-2.4,0.9-3.8,0.9c-1.2,0-2.3-0.3-3.1-0.9s-1.5-1.5-1.9-2.7
			s-0.6-2.5-0.5-3.9C1073.1,877.1,1073.1,876.2,1073.3,875.2z M1074,877.5c-0.1,1.3,0,2.5,0.3,3.6s0.8,1.9,1.5,2.5s1.6,0.9,2.7,0.9
			c1.5,0,2.9-0.4,4.1-1.1s2.2-1.7,3-3l1.6-8.9c-0.2-1.5-0.8-2.7-1.8-3.5s-2.1-1.3-3.6-1.3s-2.8,0.5-4,1.5s-2.1,2.4-2.7,4.1
			S1074.1,875.7,1074,877.5z"/>
		<path class="st3" d="M1092,875.1c0.3-1.8,0.9-3.4,1.8-4.8s2-2.6,3.3-3.4s2.8-1.2,4.4-1.2c1.3,0,2.4,0.3,3.4,0.9s1.8,1.4,2.4,2.6
			s0.9,2.4,1,3.8c0,0.8,0,1.8-0.2,3.1c-0.3,1.8-0.9,3.4-1.8,4.9s-2,2.6-3.3,3.4s-2.8,1.2-4.4,1.2c-1.3,0-2.4-0.3-3.4-0.9
			s-1.8-1.4-2.4-2.5s-0.9-2.4-1-3.8C1091.8,877.3,1091.9,876.3,1092,875.1z M1092.9,878.8c0.2,1.7,0.9,3,1.9,4s2.3,1.5,3.9,1.5
			c1.8,0,3.5-0.6,5-1.9s2.6-3,3.2-5.2c0.5-1.8,0.7-3.5,0.5-5.2c-0.3-1.7-0.9-3-1.9-4s-2.3-1.5-3.8-1.5c-1.8,0-3.5,0.7-5,2
			s-2.6,3-3.2,5.2C1092.8,875.5,1092.6,877.2,1092.9,878.8z"/>
		<path class="st3" d="M1124.3,884.9h-0.9l2.2-12.6c0.1-0.8,0.2-1.6,0.1-2.3c-0.1-1.1-0.5-2-1.2-2.6s-1.7-0.9-2.9-0.9
			c-1.6,0-3.2,0.7-4.7,1.9s-2.5,2.8-3,4.5l-2.1,12h-0.9l3.3-19h1l-0.8,4.5c0.9-1.6,2.1-2.8,3.3-3.6s2.6-1.3,4-1.3
			c1.6,0,2.8,0.4,3.6,1.2s1.3,1.9,1.3,3.3c0.8-1.4,1.9-2.5,3.3-3.3s2.8-1.2,4.3-1.2s2.6,0.4,3.5,1.1s1.3,1.8,1.5,3.2
			c0.1,0.9,0,1.8-0.1,2.8l-2.1,12.2h-0.9l2.1-12.3c0.1-0.8,0.2-1.6,0.2-2.3c-0.1-1.2-0.4-2.2-1.1-2.8c-0.7-0.7-1.7-1-2.9-1
			c-1.1,0-2.2,0.3-3.3,0.8c-1.1,0.5-2,1.2-2.8,2.1s-1.3,1.8-1.5,2.9L1124.3,884.9z"/>
		<path class="st3" d="M1149.5,885.3c-1.5,0-2.8-0.4-3.9-1.3s-1.9-2-2.4-3.5s-0.6-3-0.4-4.7l0.1-0.9c0.3-1.7,0.9-3.3,1.8-4.8
			s2-2.6,3.3-3.4s2.6-1.2,4.1-1.2c1.9,0,3.4,0.7,4.5,2.1s1.6,3.2,1.4,5.4l-0.1,0.5l-0.2,1.1H1144l-0.2,1c-0.2,1-0.2,2,0,3
			c0.3,1.7,0.9,3,1.9,4s2.3,1.5,3.8,1.5c2.2,0,4.2-0.8,5.9-2.6l0.6,0.5C1154.3,884.3,1152.2,885.3,1149.5,885.3z M1152.1,866.5
			c-1.8,0-3.4,0.7-4.8,2s-2.5,3.1-3.2,5.3h12.8l0.1-0.2c0.2-0.8,0.2-1.7,0-2.5c-0.2-1.4-0.8-2.5-1.6-3.3S1153.4,866.5,1152.1,866.5z
			"/>
		<path class="st3" d="M1189.5,860.3h-9.1l-4.3,24.6h-0.9l4.3-24.6h-9l0.1-0.9h19L1189.5,860.3z"/>
		<path class="st3" d="M1194.4,885.3c-1.5,0-2.8-0.4-3.9-1.3s-1.9-2-2.4-3.5s-0.6-3-0.4-4.7l0.1-0.9c0.3-1.7,0.9-3.3,1.8-4.8
			s2-2.6,3.3-3.4s2.6-1.2,4.1-1.2c1.9,0,3.4,0.7,4.5,2.1s1.6,3.2,1.4,5.4l-0.1,0.5l-0.2,1.1h-13.8l-0.2,1c-0.2,1-0.2,2,0,3
			c0.3,1.7,0.9,3,1.9,4s2.3,1.5,3.8,1.5c2.2,0,4.2-0.8,5.9-2.6l0.6,0.5C1199.2,884.3,1197.1,885.3,1194.4,885.3z M1197,866.5
			c-1.8,0-3.4,0.7-4.8,2s-2.5,3.1-3.2,5.3h12.8l0.1-0.2c0.2-0.8,0.2-1.7,0-2.5c-0.2-1.4-0.8-2.5-1.6-3.3S1198.3,866.5,1197,866.5z"
			/>
		<path class="st3" d="M1211.7,884.3c1.7,0,3.1-0.5,4.3-1.4s2-2.2,2.5-3.7h0.9c-0.4,1.8-1.3,3.3-2.8,4.4s-3.1,1.7-5,1.7
			c-1.7,0-3.2-0.5-4.2-1.6s-1.7-2.6-2-4.5c-0.1-1.1-0.1-2.2,0.1-3.4l0.1-0.7c0.3-1.9,0.9-3.5,1.7-5s1.9-2.6,3.1-3.3s2.6-1.1,4.1-1.1
			c1.9,0,3.4,0.6,4.5,1.9s1.6,2.8,1.4,4.8h-0.9c0.2-1.7-0.2-3.1-1.2-4.1s-2.2-1.6-3.8-1.6c-2.2,0-4.1,0.9-5.5,2.7s-2.4,4.2-2.7,7.3
			l-0.1,1.3c0,2.1,0.5,3.7,1.4,4.8S1210,884.3,1211.7,884.3z"/>
		<path class="st3" d="M1226.6,870.4c0.9-1.5,2.1-2.7,3.4-3.5s2.6-1.2,4-1.2c1.5,0,2.6,0.4,3.4,1.1s1.3,1.8,1.4,3.3
			c0.1,0.9,0,1.8-0.1,2.8l-2.1,12.2h-0.9l2.1-12.2c0.1-0.8,0.2-1.6,0.2-2.4c-0.1-1.2-0.4-2.2-1.1-2.8s-1.6-1-2.9-1
			c-1.6,0-3.1,0.6-4.6,1.9s-2.5,2.7-3,4.4l-2.1,12.2h-0.9l4.7-27h0.9L1226.6,870.4z"/>
		<path class="st3" d="M1242.7,875.1c0.3-1.8,0.9-3.4,1.8-4.8s2-2.6,3.3-3.4s2.8-1.2,4.4-1.2c1.3,0,2.4,0.3,3.4,0.9s1.8,1.4,2.4,2.6
			s0.9,2.4,1,3.8c0,0.8,0,1.8-0.2,3.1c-0.3,1.8-0.9,3.4-1.8,4.9s-2,2.6-3.3,3.4s-2.8,1.2-4.4,1.2c-1.3,0-2.4-0.3-3.4-0.9
			s-1.8-1.4-2.4-2.5s-0.9-2.4-1-3.8C1242.5,877.3,1242.6,876.3,1242.7,875.1z M1243.6,878.8c0.2,1.7,0.9,3,1.9,4s2.3,1.5,3.9,1.5
			c1.8,0,3.5-0.6,5-1.9s2.6-3,3.2-5.2c0.5-1.8,0.7-3.5,0.5-5.2c-0.3-1.7-0.9-3-1.9-4s-2.3-1.5-3.8-1.5c-1.8,0-3.5,0.7-5,2
			s-2.6,3-3.2,5.2C1243.5,875.5,1243.3,877.2,1243.6,878.8z"/>
		<path class="st3" d="M1265.2,870.4c0.9-1.5,2.1-2.7,3.4-3.5s2.6-1.2,4-1.2c1.5,0,2.6,0.4,3.4,1.1s1.3,1.8,1.4,3.3
			c0.1,0.9,0,1.8-0.1,2.8l-2.1,12.2h-0.9l2.1-12.2c0.1-0.8,0.2-1.6,0.2-2.4c-0.1-1.2-0.4-2.2-1.1-2.8s-1.6-1-2.9-1
			c-1.6,0-3.1,0.6-4.6,1.9s-2.5,2.7-3,4.4l-2.1,12.2h-0.9l3.3-19h0.9L1265.2,870.4z"/>
		<path class="st3" d="M1281.4,875.1c0.3-1.8,0.9-3.4,1.8-4.8s2-2.6,3.3-3.4s2.8-1.2,4.4-1.2c1.3,0,2.4,0.3,3.4,0.9s1.8,1.4,2.4,2.6
			s0.9,2.4,1,3.8c0,0.8,0,1.8-0.2,3.1c-0.3,1.8-0.9,3.4-1.8,4.9s-2,2.6-3.3,3.4s-2.8,1.2-4.4,1.2c-1.3,0-2.4-0.3-3.4-0.9
			s-1.8-1.4-2.4-2.5s-0.9-2.4-1-3.8C1281.2,877.3,1281.2,876.3,1281.4,875.1z M1282.2,878.8c0.2,1.7,0.9,3,1.9,4s2.3,1.5,3.9,1.5
			c1.8,0,3.5-0.6,5-1.9s2.6-3,3.2-5.2c0.5-1.8,0.7-3.5,0.5-5.2c-0.3-1.7-0.9-3-1.9-4s-2.3-1.5-3.8-1.5c-1.8,0-3.5,0.7-5,2
			s-2.6,3-3.2,5.2C1282.2,875.5,1282,877.2,1282.2,878.8z"/>
		<path class="st3" d="M1301.7,884.9h-0.9l4.6-27h0.9L1301.7,884.9z"/>
		<path class="st3" d="M1308.2,875.1c0.3-1.8,0.9-3.4,1.8-4.8s2-2.6,3.3-3.4s2.8-1.2,4.4-1.2c1.3,0,2.4,0.3,3.4,0.9s1.8,1.4,2.4,2.6
			s0.9,2.4,1,3.8c0,0.8,0,1.8-0.2,3.1c-0.3,1.8-0.9,3.4-1.8,4.9s-2,2.6-3.3,3.4s-2.8,1.2-4.4,1.2c-1.3,0-2.4-0.3-3.4-0.9
			s-1.8-1.4-2.4-2.5s-0.9-2.4-1-3.8C1307.9,877.3,1308,876.3,1308.2,875.1z M1309,878.8c0.2,1.7,0.9,3,1.9,4s2.3,1.5,3.9,1.5
			c1.8,0,3.5-0.6,5-1.9s2.6-3,3.2-5.2c0.5-1.8,0.7-3.5,0.5-5.2c-0.3-1.7-0.9-3-1.9-4s-2.3-1.5-3.8-1.5c-1.8,0-3.5,0.7-5,2
			s-2.6,3-3.2,5.2C1308.9,875.5,1308.8,877.2,1309,878.8z"/>
		<path class="st3" d="M1328,875.2c0.3-1.9,0.9-3.6,1.7-5.1s1.8-2.6,3-3.4s2.4-1.1,3.8-1.1s2.5,0.3,3.5,1s1.7,1.6,2.1,2.8l0.6-3.5
			h0.9l-3.1,18.4c-0.4,2.6-1.4,4.7-2.9,6.1s-3.3,2.2-5.4,2.2c-2.4,0-4.3-1.1-5.6-3.2l0.7-0.6c1.2,1.9,2.8,2.9,4.8,2.9
			c1.8,0,3.4-0.6,4.7-1.9s2.2-3,2.6-5.2l0.5-2.6c-0.8,1.1-1.8,1.9-3,2.5s-2.4,0.9-3.8,0.9c-1.2,0-2.3-0.3-3.1-0.9s-1.5-1.5-1.9-2.7
			s-0.6-2.5-0.5-3.9C1327.8,877.1,1327.9,876.2,1328,875.2z M1328.8,877.5c-0.2,2.1,0.2,3.8,1,5s2,1.8,3.6,1.8
			c1.5,0,2.9-0.4,4.1-1.1s2.2-1.8,3-3.1l1.5-8.6c-0.2-1.6-0.8-2.8-1.7-3.7s-2.1-1.3-3.6-1.3s-2.8,0.5-4,1.5s-2.1,2.4-2.7,4.1
			S1328.9,875.7,1328.8,877.5z"/>
		<path class="st3" d="M1352.4,883.5l0.2-0.4l9.4-17.2h1.1l-12,22.2c-0.9,1.6-1.7,2.8-2.6,3.5s-1.9,1-3,1c-0.4,0-0.9-0.1-1.4-0.2
			l0.1-0.9c0.6,0.1,1,0.2,1.2,0.2c1.6,0,2.9-0.9,4-2.6l0.7-1.2l1.7-3.2l-4.1-18.8h1L1352.4,883.5z"/>
	</g>
	<g id="Imagen_x5F_AI.psd">
		<g>
			<defs>
				<rect id="SVGID_2_" x="488.1" y="363.5" width="1000.1" height="465.6"/>
			</defs>
			<clipPath id="SVGID_3_">
				<use xlink:href="#SVGID_2_"  style="overflow:visible;"/>
			</clipPath>
			<g class="st4">
				
					<image style="overflow:visible;enable-background:new    ;" width="791" height="171" id="Imagen_x5F_AI_1_" xlink:href="6EEE0741.png"  transform="matrix(1.0982 0 0 1.0982 556.5154 537.9342)">
				</image>
			</g>
		</g>
	</g>
</g>
<g id="Capa_2_1_" class="st5">
	
		<image style="display:inline;overflow:visible;enable-background:new    ;" width="803" height="803" xlink:href="6EEE0742.png"  transform="matrix(1.142 0 0 1.142 906.3671 325.443)">
	</image>
	<g class="st6">
		<rect x="244.4" y="871.1" class="st2" width="463.3" height="221"/>
		<path class="st7" d="M254,903.1h-7.1v6.5h8.1v0.5h-8.7v-14.2h8.7v0.5h-8.1v6.1h7.1V903.1z"/>
		<path class="st7" d="M258.2,910.1h-0.5v-15h0.5V910.1z"/>
		<path class="st7" d="M276.3,905.8c-0.1,1.5-0.6,2.6-1.5,3.4c-0.9,0.8-2.1,1.2-3.6,1.2c-1,0-1.9-0.3-2.7-0.8
			c-0.8-0.5-1.4-1.2-1.8-2.2c-0.4-0.9-0.6-2-0.7-3.2V902c0-1.2,0.2-2.3,0.6-3.2c0.4-1,1-1.7,1.8-2.2s1.7-0.8,2.7-0.8
			c1.5,0,2.7,0.4,3.5,1.2s1.4,1.9,1.5,3.4h-0.5c-0.1-1.3-0.6-2.3-1.4-3s-1.8-1-3.2-1c-1.4,0-2.5,0.5-3.3,1.6c-0.8,1-1.3,2.4-1.3,4.2
			v2.1c0,1.1,0.2,2.1,0.6,3s0.9,1.5,1.6,2s1.5,0.7,2.4,0.7c1.4,0,2.4-0.3,3.2-1c0.8-0.7,1.2-1.7,1.4-3h0.7V905.8z"/>
		<path class="st7" d="M279.9,902c0.3-0.8,0.9-1.5,1.5-1.9c0.7-0.5,1.4-0.7,2.2-0.7c1.1,0,2,0.3,2.5,1c0.6,0.6,0.8,1.6,0.8,2.9v6.9
			h-0.5v-6.9c0-1.1-0.2-2-0.7-2.5s-1.2-0.8-2.2-0.8c-0.9,0-1.7,0.3-2.4,1s-1.1,1.5-1.4,2.5v6.8h-0.5v-15h0.5v6.7H279.9z"/>
		<path class="st7" d="M290.2,896.3c0-0.2,0.1-0.3,0.2-0.4s0.2-0.2,0.4-0.2s0.3,0.1,0.4,0.2s0.2,0.2,0.2,0.4c0,0.1-0.1,0.3-0.2,0.4
			c-0.1,0.1-0.2,0.2-0.4,0.2s-0.3-0.1-0.4-0.2C290.2,896.5,290.2,896.4,290.2,896.3z M291,910.1h-0.5v-10.6h0.5V910.1z"/>
		<path class="st7" d="M302.5,904.9c0,1.6-0.4,3-1.1,3.9c-0.7,1-1.7,1.5-2.9,1.5c-0.8,0-1.5-0.2-2.1-0.5s-1.1-0.8-1.5-1.3v5.7h-0.5
			v-14.6h0.5v1.9c0.4-0.7,0.9-1.2,1.5-1.5c0.6-0.4,1.3-0.5,2.1-0.5c1.2,0,2.2,0.5,2.9,1.4S302.5,903.2,302.5,904.9L302.5,904.9z
			 M302,904.7c0-1.5-0.3-2.7-0.9-3.6c-0.6-0.9-1.4-1.3-2.5-1.3c-0.9,0-1.6,0.2-2.3,0.7s-1.1,1.1-1.3,2v4.9c0.3,0.7,0.7,1.3,1.3,1.7
			s1.4,0.6,2.3,0.6c1.1,0,1.9-0.4,2.5-1.3S302,906.4,302,904.7z"/>
		<path class="st7" d="M317.9,905.9h-7l-1.6,4.2h-0.6l5.3-14.2h0.6l5.3,14.2h-0.6L317.9,905.9z M311.2,905.4h6.6l-3.3-8.8
			L311.2,905.4z"/>
		<path class="st7" d="M326.9,910.1h-0.5v-13.6l-4.1,1.5v-0.6l4.5-1.7h0.1V910.1z"/>
		<path class="st7" d="M339.6,905.7h2.5v0.5h-2.5v3.9h-0.5v-3.9h-6.9V906l6.8-10h0.6V905.7z M333,905.7h6.1v-9.2l-0.8,1.3L333,905.7
			z"/>
		<path class="st7" d="M349.1,910.1v-14.2h3.7c1.5,0,2.7,0.3,3.5,0.9c0.8,0.6,1.2,1.5,1.2,2.7c0,0.9-0.2,1.6-0.7,2.1
			s-1.1,0.9-1.8,1.1c0.9,0.1,1.6,0.5,2.2,1.2s0.9,1.4,0.9,2.3c0,1.2-0.4,2.2-1.2,2.9c-0.8,0.7-1.9,1-3.3,1H349.1z M349.6,902.6h3.4
			c1.3,0,2.3-0.2,2.9-0.7s1-1.3,1-2.3c0-2-1.3-3-4-3.1h-3.3V902.6z M349.6,903.1v6.5h4.1c1.2,0,2.1-0.3,2.8-0.9s1-1.4,1-2.5
			c0-0.9-0.3-1.6-1-2.2c-0.7-0.6-1.6-0.9-2.7-0.9L349.6,903.1L349.6,903.1z"/>
		<path class="st7" d="M360.7,896.3c0-0.2,0.1-0.3,0.2-0.4s0.2-0.2,0.4-0.2s0.3,0.1,0.4,0.2s0.2,0.2,0.2,0.4c0,0.1-0.1,0.3-0.2,0.4
			c-0.1,0.1-0.2,0.2-0.4,0.2s-0.3-0.1-0.4-0.2C360.8,896.5,360.7,896.4,360.7,896.3z M361.5,910.1H361v-10.6h0.5V910.1z"/>
		<path class="st7" d="M364.2,904.6c0-1,0.2-1.9,0.6-2.7s0.9-1.4,1.6-1.9s1.5-0.7,2.4-0.7s1.7,0.2,2.4,0.7c0.7,0.4,1.3,1.1,1.6,1.9
			s0.6,1.7,0.6,2.7v0.5c0,1-0.2,1.9-0.6,2.7s-0.9,1.4-1.6,1.9s-1.5,0.7-2.4,0.7s-1.7-0.2-2.4-0.7c-0.7-0.4-1.3-1.1-1.6-1.9
			c-0.4-0.8-0.6-1.7-0.6-2.7V904.6z M364.7,905.1c0,0.9,0.2,1.7,0.5,2.4s0.8,1.3,1.5,1.7s1.3,0.6,2.1,0.6c1.2,0,2.2-0.5,2.9-1.4
			c0.8-0.9,1.1-2.1,1.1-3.5v-0.3c0-0.9-0.2-1.7-0.5-2.4c-0.4-0.7-0.8-1.3-1.5-1.7c-0.6-0.4-1.3-0.6-2.1-0.6c-1.2,0-2.2,0.5-2.9,1.4
			s-1.1,2.1-1.1,3.5V905.1z"/>
		<path class="st7" d="M376.5,902c0.3-0.8,0.9-1.5,1.5-1.9c0.7-0.5,1.4-0.7,2.2-0.7c1.1,0,2,0.3,2.5,1c0.6,0.6,0.8,1.6,0.8,2.9v6.9
			H383v-6.9c0-1.1-0.2-2-0.7-2.5s-1.2-0.8-2.2-0.8c-0.9,0-1.7,0.3-2.4,1s-1.1,1.5-1.4,2.5v6.8H376v-10.6h0.5V902z"/>
		<path class="st7" d="M386.8,896.3c0-0.2,0.1-0.3,0.2-0.4s0.2-0.2,0.4-0.2s0.3,0.1,0.4,0.2s0.2,0.2,0.2,0.4c0,0.1-0.1,0.3-0.2,0.4
			c-0.1,0.1-0.2,0.2-0.4,0.2s-0.3-0.1-0.4-0.2C386.8,896.5,386.8,896.4,386.8,896.3z M387.6,910.1H387v-10.6h0.5v10.6H387.6z"/>
		<path class="st7" d="M394.6,909.8c1,0,1.7-0.3,2.4-0.8s1-1.2,1-2.1h0.5c-0.1,1-0.4,1.8-1.2,2.5c-0.7,0.6-1.6,0.9-2.7,0.9
			c-1.3,0-2.4-0.5-3.1-1.4s-1.2-2.3-1.2-3.9v-0.4c0-1.6,0.4-2.9,1.2-3.8s1.8-1.4,3.1-1.4c1.1,0,2,0.3,2.8,1c0.7,0.7,1.1,1.6,1.2,2.7
			H398c0-1-0.4-1.7-1-2.3s-1.4-0.9-2.4-0.9c-1.2,0-2.1,0.4-2.8,1.3s-1,2-1,3.5v0.3c0,1.5,0.3,2.6,1,3.5
			C392.5,909.4,393.4,909.8,394.6,909.8z"/>
		<path class="st7" d="M400.8,912.6l-0.4-0.3c0.5-0.7,0.8-1.4,0.9-2.1v-1.6h0.5v1.4C401.8,911,401.4,911.9,400.8,912.6z"/>
		<path class="st7" d="M413.5,910.3c-0.9,0-1.6-0.2-2.3-0.7s-1.3-1.1-1.7-1.9s-0.6-1.7-0.6-2.7v-0.4c0-1,0.2-1.9,0.6-2.7
			s0.9-1.4,1.6-1.9s1.4-0.7,2.2-0.7c1.2,0,2.1,0.4,2.9,1.3s1.1,1.9,1.1,3.3v0.6h-7.9v0.6c0,0.9,0.2,1.7,0.5,2.4
			c0.4,0.7,0.9,1.3,1.5,1.7s1.3,0.6,2.1,0.6c0.7,0,1.3-0.1,1.8-0.4c0.5-0.2,0.9-0.6,1.3-1.1l0.4,0.3
			C416.2,909.8,415.1,910.3,413.5,910.3z M413.3,899.9c-1,0-1.9,0.4-2.6,1.1c-0.7,0.8-1.1,1.7-1.3,2.9h7.4v-0.1c0-0.7-0.2-1.4-0.5-2
			s-0.7-1.1-1.2-1.4S414,899.9,413.3,899.9z"/>
		<path class="st7" d="M420.4,910.1h-0.5v-15h0.5V910.1z"/>
		<path class="st7" d="M436.3,910.1h-0.5V903c0-1.1-0.2-1.8-0.7-2.4c-0.5-0.5-1.2-0.8-2.2-0.8c-1.2,0-2.1,0.5-2.8,1.5
			c-0.4,0.6-0.7,1.3-0.9,2v6.7h-0.5v-10.6h0.5v2.5c0.4-0.9,0.9-1.5,1.5-2s1.4-0.7,2.2-0.7c0.9,0,1.6,0.2,2.2,0.6s0.9,1,1.1,1.9
			c0.3-0.8,0.8-1.4,1.5-1.8c0.7-0.5,1.5-0.7,2.4-0.7c1.1,0,2,0.3,2.5,1s0.8,1.6,0.8,2.9v6.9h-0.5v-6.8c0-1.2-0.2-2-0.7-2.6
			s-1.2-0.8-2.2-0.8c-1.3,0-2.3,0.5-3,1.5c-0.4,0.6-0.7,1.1-0.7,1.7L436.3,910.1L436.3,910.1z"/>
		<path class="st7" d="M453.5,910.1c-0.1-0.4-0.2-1.1-0.2-1.9c-0.4,0.7-1,1.2-1.7,1.6s-1.5,0.6-2.5,0.6s-1.8-0.3-2.4-0.8
			s-0.9-1.2-0.9-2.1c0-1,0.4-1.7,1.3-2.3s2-0.9,3.5-0.9h2.6v-1.5c0-0.9-0.3-1.6-0.8-2.1S451,900,450,900s-1.8,0.2-2.4,0.7
			s-1,1.1-1,1.8h-0.5c0-0.9,0.4-1.6,1.1-2.2c0.8-0.6,1.7-0.9,2.8-0.9c1.1,0,2,0.3,2.7,0.9c0.7,0.6,1,1.4,1,2.4v5
			c0,1.2,0.1,1.9,0.3,2.4v0.1L453.5,910.1L453.5,910.1z M449.1,909.8c1,0,1.8-0.2,2.6-0.7c0.7-0.4,1.2-1.1,1.6-1.9v-2.5h-2.4
			c-1.5,0-2.7,0.3-3.5,0.9c-0.7,0.5-1,1.1-1,1.8c0,0.6,0.3,1.2,0.8,1.6S448.3,909.8,449.1,909.8z M452,895.1h0.6l-1.9,2.6h-0.6
			L452,895.1z"/>
		<path class="st7" d="M463.7,907.5c0-1.3-1.1-2.2-3.3-2.6c-1.3-0.3-2.2-0.6-2.7-1.1s-0.8-1-0.8-1.8s0.3-1.4,1-1.9s1.5-0.8,2.6-0.8
			s2.1,0.3,2.7,0.8c0.7,0.5,1,1.3,1,2.2h-0.5c0-0.7-0.3-1.3-0.9-1.8s-1.4-0.7-2.3-0.7s-1.7,0.2-2.2,0.6c-0.5,0.4-0.8,0.9-0.8,1.5
			c0,0.5,0.1,0.8,0.3,1.1c0.2,0.3,0.5,0.5,1,0.7s1.1,0.4,2,0.6c0.9,0.2,1.6,0.4,2.1,0.7s0.9,0.6,1.1,1s0.3,0.8,0.3,1.4
			c0,0.8-0.3,1.5-1,2s-1.6,0.8-2.7,0.8c-1.2,0-2.1-0.3-2.9-0.8s-1.1-1.2-1.1-2.1h0.5c0.1,0.7,0.4,1.3,1,1.7s1.4,0.6,2.4,0.6
			c0.9,0,1.7-0.2,2.3-0.7S463.7,908.2,463.7,907.5z"/>
		<path class="st7" d="M476.6,900l-0.7-0.1c-0.9,0-1.7,0.3-2.3,0.9s-1,1.4-1.2,2.4v6.9h-0.5v-10.6h0.5v2.2c0.3-0.7,0.7-1.3,1.3-1.7
			s1.3-0.6,2.2-0.6c0.3,0,0.6,0,0.7,0.1V900z"/>
		<path class="st7" d="M485,910.1c-0.1-0.4-0.2-1.1-0.2-1.9c-0.4,0.7-1,1.2-1.7,1.6s-1.5,0.6-2.5,0.6s-1.8-0.3-2.4-0.8
			s-0.9-1.2-0.9-2.1c0-1,0.4-1.7,1.3-2.3s2-0.9,3.5-0.9h2.6v-1.5c0-0.9-0.3-1.6-0.8-2.1s-1.4-0.7-2.4-0.7s-1.8,0.2-2.4,0.7
			s-1,1.1-1,1.8h-0.5c0-0.9,0.4-1.6,1.1-2.2c0.8-0.6,1.7-0.9,2.8-0.9c1.1,0,2,0.3,2.7,0.9c0.7,0.6,1,1.4,1,2.4v5
			c0,1.2,0.1,1.9,0.3,2.4v0.1L485,910.1L485,910.1z M480.7,909.8c1,0,1.8-0.2,2.6-0.7c0.7-0.4,1.2-1.1,1.6-1.9v-2.5h-2.4
			c-1.5,0-2.7,0.3-3.5,0.9c-0.7,0.5-1,1.1-1,1.8c0,0.6,0.3,1.2,0.8,1.6S479.9,909.8,480.7,909.8z M483.6,895.1h0.6l-1.9,2.6h-0.6
			L483.6,895.1z"/>
		<path class="st7" d="M496.9,904.9c0,1.6-0.4,3-1.1,3.9c-0.7,1-1.7,1.5-2.9,1.5c-0.8,0-1.5-0.2-2.1-0.5s-1.1-0.8-1.5-1.3v5.7h-0.5
			v-14.6h0.5v1.9c0.4-0.7,0.9-1.2,1.5-1.5c0.6-0.4,1.3-0.5,2.1-0.5c1.2,0,2.2,0.5,2.9,1.4S496.9,903.2,496.9,904.9L496.9,904.9z
			 M496.3,904.7c0-1.5-0.3-2.7-0.9-3.6c-0.6-0.9-1.4-1.3-2.5-1.3c-0.9,0-1.6,0.2-2.3,0.7s-1.1,1.1-1.3,2v4.9
			c0.3,0.7,0.7,1.3,1.3,1.7s1.4,0.6,2.3,0.6c1.1,0,1.9-0.4,2.5-1.3S496.3,906.4,496.3,904.7z"/>
		<path class="st7" d="M499.6,896.3c0-0.2,0.1-0.3,0.2-0.4s0.2-0.2,0.4-0.2s0.3,0.1,0.4,0.2s0.2,0.2,0.2,0.4c0,0.1-0.1,0.3-0.2,0.4
			c-0.1,0.1-0.2,0.2-0.4,0.2s-0.3-0.1-0.4-0.2C499.6,896.5,499.6,896.4,499.6,896.3z M500.4,910.1h-0.5v-10.6h0.5V910.1z"/>
		<path class="st7" d="M503.4,904.7c0-1.7,0.4-3,1.1-4s1.7-1.4,2.9-1.4c0.8,0,1.5,0.2,2.1,0.5c0.6,0.4,1.1,0.9,1.5,1.6V895h0.5v15
			H511v-1.7c-0.4,0.6-0.8,1.1-1.5,1.4c-0.6,0.3-1.3,0.5-2.1,0.5c-1.2,0-2.2-0.5-2.9-1.5C503.8,907.7,503.4,906.4,503.4,904.7
			L503.4,904.7z M503.9,904.9c0,1.5,0.3,2.7,0.9,3.5s1.4,1.3,2.5,1.3c0.9,0,1.6-0.2,2.2-0.6c0.6-0.4,1.1-1,1.4-1.7v-5
			c-0.6-1.8-1.8-2.7-3.6-2.7c-1.1,0-1.9,0.4-2.5,1.3C504.2,902,503.9,903.3,503.9,904.9z"/>
		<path class="st7" d="M514,904.6c0-1,0.2-1.9,0.6-2.7c0.4-0.8,0.9-1.4,1.6-1.9s1.5-0.7,2.4-0.7s1.7,0.2,2.4,0.7
			c0.7,0.4,1.3,1.1,1.6,1.9s0.6,1.7,0.6,2.7v0.5c0,1-0.2,1.9-0.6,2.7s-0.9,1.4-1.6,1.9s-1.5,0.7-2.4,0.7s-1.7-0.2-2.4-0.7
			c-0.7-0.4-1.3-1.1-1.6-1.9c-0.4-0.8-0.6-1.7-0.6-2.7V904.6z M514.5,905.1c0,0.9,0.2,1.7,0.5,2.4s0.8,1.3,1.5,1.7s1.3,0.6,2.1,0.6
			c1.2,0,2.2-0.5,2.9-1.4c0.8-0.9,1.1-2.1,1.1-3.5v-0.3c0-0.9-0.2-1.7-0.5-2.4c-0.4-0.7-0.8-1.3-1.5-1.7c-0.6-0.4-1.3-0.6-2.1-0.6
			c-1.2,0-2.2,0.5-2.9,1.4s-1.1,2.1-1.1,3.5V905.1z"/>
		<path class="st7" d="M534.4,910.3c-0.9,0-1.6-0.2-2.3-0.7s-1.3-1.1-1.7-1.9s-0.6-1.7-0.6-2.7v-0.4c0-1,0.2-1.9,0.6-2.7
			c0.4-0.8,0.9-1.4,1.6-1.9c0.7-0.5,1.4-0.7,2.2-0.7c1.2,0,2.1,0.4,2.9,1.3s1.1,1.9,1.1,3.3v0.6h-7.9v0.6c0,0.9,0.2,1.7,0.5,2.4
			c0.4,0.7,0.9,1.3,1.5,1.7s1.3,0.6,2.1,0.6c0.7,0,1.3-0.1,1.8-0.4c0.5-0.2,0.9-0.6,1.3-1.1l0.4,0.3
			C537.1,909.8,535.9,910.3,534.4,910.3z M534.2,899.9c-1,0-1.9,0.4-2.6,1.1c-0.7,0.8-1.1,1.7-1.3,2.9h7.4v-0.1c0-0.7-0.2-1.4-0.5-2
			s-0.7-1.1-1.2-1.4S534.8,899.9,534.2,899.9z"/>
		<path class="st7" d="M541.2,902c0.3-0.8,0.9-1.5,1.5-1.9c0.7-0.5,1.4-0.7,2.2-0.7c1.1,0,2,0.3,2.5,1c0.6,0.6,0.8,1.6,0.8,2.9v6.9
			h-0.5v-6.9c0-1.1-0.2-2-0.7-2.5s-1.2-0.8-2.2-0.8c-0.9,0-1.7,0.3-2.4,1s-1.1,1.5-1.4,2.5v6.8h-0.5v-10.6h0.5v2.3H541.2z"/>
		<path class="st7" d="M563.5,910.1v-1.7c-0.3,0.6-0.8,1-1.4,1.4s-1.4,0.5-2.3,0.5c-1.2,0-2-0.3-2.6-1s-0.9-1.7-0.9-2.9v-6.8h0.5
			v6.8c0,1.1,0.3,2,0.8,2.5s1.2,0.9,2.2,0.9s1.8-0.2,2.5-0.7c0.6-0.5,1-1.2,1.2-2.1v-7.4h0.5v10.6L563.5,910.1L563.5,910.1z"/>
		<path class="st7" d="M567.9,902c0.3-0.8,0.9-1.5,1.5-1.9c0.7-0.5,1.4-0.7,2.2-0.7c1.1,0,2,0.3,2.5,1c0.6,0.6,0.8,1.6,0.8,2.9v6.9
			h-0.5v-6.9c0-1.1-0.2-2-0.7-2.5s-1.2-0.8-2.2-0.8c-0.9,0-1.7,0.3-2.4,1s-1.1,1.5-1.4,2.5v6.8h-0.5v-10.6h0.5v2.3H567.9z"/>
		<path class="st7" d="M589.6,907.5c0-1.3-1.1-2.2-3.3-2.6c-1.3-0.3-2.2-0.6-2.7-1.1s-0.8-1-0.8-1.8s0.3-1.4,1-1.9s1.5-0.8,2.6-0.8
			s2.1,0.3,2.7,0.8c0.7,0.5,1,1.3,1,2.2h-0.5c0-0.7-0.3-1.3-0.9-1.8c-0.6-0.5-1.4-0.7-2.3-0.7c-0.9,0-1.7,0.2-2.2,0.6
			c-0.5,0.4-0.8,0.9-0.8,1.5c0,0.5,0.1,0.8,0.3,1.1s0.5,0.5,1,0.7s1.1,0.4,2,0.6c0.9,0.2,1.6,0.4,2.1,0.7s0.9,0.6,1.1,1
			c0.2,0.4,0.3,0.8,0.3,1.4c0,0.8-0.3,1.5-1,2s-1.6,0.8-2.7,0.8c-1.2,0-2.1-0.3-2.9-0.8s-1.1-1.2-1.1-2.1h0.5c0.1,0.7,0.4,1.3,1,1.7
			s1.4,0.6,2.4,0.6c0.9,0,1.7-0.2,2.3-0.7S589.6,908.2,589.6,907.5z"/>
		<path class="st7" d="M600.6,910.1h-0.5V903c0-1.1-0.2-1.8-0.7-2.4c-0.5-0.5-1.2-0.8-2.2-0.8c-1.2,0-2.1,0.5-2.8,1.5
			c-0.4,0.6-0.7,1.3-0.9,2v6.7H593v-10.6h0.5v2.5c0.4-0.9,0.9-1.5,1.5-2s1.4-0.7,2.2-0.7c0.9,0,1.6,0.2,2.2,0.6s0.9,1,1.1,1.9
			c0.3-0.8,0.8-1.4,1.5-1.8c0.7-0.5,1.5-0.7,2.4-0.7c1.1,0,2,0.3,2.5,1s0.8,1.6,0.8,2.9v6.9h-0.5v-6.8c0-1.2-0.2-2-0.7-2.6
			s-1.2-0.8-2.2-0.8c-1.3,0-2.3,0.5-3,1.5c-0.4,0.6-0.7,1.1-0.7,1.7L600.6,910.1L600.6,910.1z"/>
		<path class="st7" d="M617.8,910.1c-0.1-0.4-0.2-1.1-0.2-1.9c-0.4,0.7-1,1.2-1.7,1.6s-1.5,0.6-2.5,0.6s-1.8-0.3-2.4-0.8
			c-0.6-0.5-0.9-1.2-0.9-2.1c0-1,0.4-1.7,1.3-2.3c0.9-0.6,2-0.9,3.5-0.9h2.6v-1.5c0-0.9-0.3-1.6-0.8-2.1s-1.4-0.7-2.4-0.7
			s-1.8,0.2-2.4,0.7c-0.6,0.5-1,1.1-1,1.8h-0.5c0-0.9,0.4-1.6,1.1-2.2c0.8-0.6,1.7-0.9,2.8-0.9s2,0.3,2.7,0.9c0.7,0.6,1,1.4,1,2.4v5
			c0,1.2,0.1,1.9,0.3,2.4v0.1L617.8,910.1L617.8,910.1z M613.4,909.8c1,0,1.8-0.2,2.6-0.7c0.7-0.4,1.2-1.1,1.6-1.9v-2.5h-2.4
			c-1.5,0-2.7,0.3-3.5,0.9c-0.7,0.5-1,1.1-1,1.8c0,0.6,0.3,1.2,0.8,1.6S612.6,909.8,613.4,909.8z"/>
		<path class="st7" d="M626.2,900l-0.7-0.1c-0.9,0-1.7,0.3-2.3,0.9s-1,1.4-1.2,2.4v6.9h-0.5v-10.6h0.5v2.2c0.3-0.7,0.7-1.3,1.3-1.7
			s1.3-0.6,2.2-0.6c0.3,0,0.6,0,0.7,0.1V900z"/>
		<path class="st7" d="M629.9,896.7v2.9h2.4v0.5h-2.4v7.5c0,0.8,0.1,1.3,0.4,1.7s0.7,0.5,1.2,0.5c0.3,0,0.6,0,1-0.1l0.1,0.5
			c-0.2,0.1-0.6,0.1-1.1,0.1c-0.8,0-1.3-0.2-1.7-0.6s-0.5-1.1-0.5-2v-7.6h-2v-0.5h2v-2.9L629.9,896.7L629.9,896.7z"/>
		<path class="st7" d="M643.1,904.9c0,1.6-0.4,3-1.1,3.9c-0.7,1-1.7,1.5-2.9,1.5c-0.8,0-1.5-0.2-2.1-0.5s-1.1-0.8-1.5-1.3v5.7H635
			v-14.6h0.5v1.9c0.4-0.7,0.9-1.2,1.5-1.5c0.6-0.4,1.3-0.5,2.1-0.5c1.2,0,2.2,0.5,2.9,1.4S643.1,903.2,643.1,904.9L643.1,904.9z
			 M642.6,904.7c0-1.5-0.3-2.7-0.9-3.6c-0.6-0.9-1.4-1.3-2.5-1.3c-0.9,0-1.6,0.2-2.3,0.7s-1.1,1.1-1.3,2v4.9
			c0.3,0.7,0.7,1.3,1.3,1.7s1.4,0.6,2.3,0.6c1.1,0,1.9-0.4,2.5-1.3S642.6,906.4,642.6,904.7z"/>
		<path class="st7" d="M646.5,902c0.3-0.8,0.9-1.5,1.5-1.9c0.7-0.5,1.4-0.7,2.2-0.7c1.1,0,2,0.3,2.5,1c0.6,0.6,0.8,1.6,0.8,2.9v6.9
			H653v-6.9c0-1.1-0.2-2-0.7-2.5s-1.2-0.8-2.2-0.8c-0.9,0-1.7,0.3-2.4,1s-1.1,1.5-1.4,2.5v6.8H646v-15h0.5V902z"/>
		<path class="st7" d="M656.1,904.6c0-1,0.2-1.9,0.6-2.7c0.4-0.8,0.9-1.4,1.6-1.9s1.5-0.7,2.4-0.7s1.7,0.2,2.4,0.7
			c0.7,0.4,1.3,1.1,1.6,1.9s0.6,1.7,0.6,2.7v0.5c0,1-0.2,1.9-0.6,2.7s-0.9,1.4-1.6,1.9s-1.5,0.7-2.4,0.7s-1.7-0.2-2.4-0.7
			c-0.7-0.4-1.3-1.1-1.6-1.9c-0.4-0.8-0.6-1.7-0.6-2.7V904.6z M656.6,905.1c0,0.9,0.2,1.7,0.5,2.4s0.8,1.3,1.5,1.7s1.3,0.6,2.1,0.6
			c1.2,0,2.2-0.5,2.9-1.4c0.8-0.9,1.1-2.1,1.1-3.5v-0.3c0-0.9-0.2-1.7-0.5-2.4c-0.4-0.7-0.8-1.3-1.5-1.7c-0.6-0.4-1.3-0.6-2.1-0.6
			c-1.2,0-2.2,0.5-2.9,1.4s-1.1,2.1-1.1,3.5V905.1z"/>
		<path class="st7" d="M668.4,902c0.3-0.8,0.9-1.5,1.5-1.9c0.7-0.5,1.4-0.7,2.2-0.7c1.1,0,2,0.3,2.5,1c0.6,0.6,0.8,1.6,0.8,2.9v6.9
			H675v-6.9c0-1.1-0.2-2-0.7-2.5s-1.2-0.8-2.2-0.8c-0.9,0-1.7,0.3-2.4,1s-1.1,1.5-1.4,2.5v6.8h-0.5v-10.6h0.5v2.3H668.4z"/>
		<path class="st7" d="M682.7,910.3c-0.9,0-1.6-0.2-2.3-0.7s-1.3-1.1-1.7-1.9s-0.6-1.7-0.6-2.7v-0.4c0-1,0.2-1.9,0.6-2.7
			c0.4-0.8,0.9-1.4,1.6-1.9c0.7-0.5,1.4-0.7,2.2-0.7c1.2,0,2.1,0.4,2.9,1.3s1.1,1.9,1.1,3.3v0.6h-7.9v0.6c0,0.9,0.2,1.7,0.5,2.4
			c0.4,0.7,0.9,1.3,1.5,1.7s1.3,0.6,2.1,0.6c0.7,0,1.3-0.1,1.8-0.4c0.5-0.2,0.9-0.6,1.3-1.1l0.4,0.3
			C685.4,909.8,684.2,910.3,682.7,910.3z M682.5,899.9c-1,0-1.9,0.4-2.6,1.1c-0.7,0.8-1.1,1.7-1.3,2.9h7.4v-0.1c0-0.7-0.2-1.4-0.5-2
			s-0.7-1.1-1.2-1.4S683.1,899.9,682.5,899.9z"/>
		<path class="st7" d="M688.7,909.7c0-0.2,0.1-0.3,0.2-0.4s0.2-0.2,0.4-0.2s0.3,0.1,0.4,0.2s0.2,0.2,0.2,0.4c0,0.1-0.1,0.3-0.2,0.4
			c-0.1,0.1-0.2,0.2-0.4,0.2s-0.3-0.1-0.4-0.2C688.8,909.9,688.7,909.8,688.7,909.7z"/>
		<path class="st7" d="M254.9,930.7c0-0.6-0.1-1.1-0.4-1.5s-0.7-0.8-1.3-1.1s-1.5-0.7-2.8-1c-1.2-0.3-2.2-0.7-2.8-1
			s-1.1-0.7-1.4-1.2c-0.3-0.5-0.4-1-0.4-1.7c0-1,0.4-1.9,1.3-2.5c0.9-0.6,2-1,3.4-1c0.9,0,1.7,0.2,2.5,0.5c0.7,0.4,1.3,0.9,1.7,1.5
			s0.6,1.4,0.6,2.2h-0.5c0-1.1-0.4-1.9-1.2-2.6s-1.8-1-3-1s-2.3,0.3-3,0.8s-1.2,1.3-1.2,2.1c0,0.9,0.3,1.5,1,2.1
			c0.7,0.5,1.8,1,3.3,1.4s2.7,0.9,3.4,1.4c0.9,0.7,1.4,1.6,1.4,2.7c0,0.7-0.2,1.3-0.6,1.9c-0.4,0.5-1,1-1.7,1.3s-1.6,0.4-2.5,0.4
			c-1,0-2-0.2-2.8-0.5s-1.4-0.8-1.9-1.5c-0.4-0.6-0.6-1.4-0.6-2.2h0.5c0,1.2,0.4,2.1,1.3,2.7s2,1,3.4,1c1.2,0,2.3-0.3,3.1-0.9
			S254.9,931.6,254.9,930.7z"/>
		<path class="st7" d="M257.8,920.3c0-0.2,0.1-0.3,0.2-0.4s0.2-0.2,0.4-0.2s0.3,0.1,0.4,0.2s0.2,0.2,0.2,0.4c0,0.1-0.1,0.3-0.2,0.4
			c-0.1,0.1-0.2,0.2-0.4,0.2s-0.3-0.1-0.4-0.2C257.8,920.5,257.8,920.4,257.8,920.3z M258.6,934.1h-0.5v-10.6h0.5V934.1z"/>
		<path class="st7" d="M268.6,931.5c0-1.3-1.1-2.2-3.3-2.6c-1.3-0.3-2.2-0.6-2.7-1.1s-0.8-1-0.8-1.8s0.3-1.4,1-1.9s1.5-0.8,2.6-0.8
			s2.1,0.3,2.7,0.8c0.7,0.5,1,1.3,1,2.2h-0.5c0-0.7-0.3-1.3-0.9-1.8s-1.4-0.7-2.3-0.7s-1.7,0.2-2.2,0.6c-0.5,0.4-0.8,0.9-0.8,1.5
			c0,0.5,0.1,0.8,0.3,1.1c0.2,0.3,0.5,0.5,1,0.7s1.1,0.4,2,0.6c0.9,0.2,1.6,0.4,2.1,0.7s0.9,0.6,1.1,1s0.3,0.8,0.3,1.4
			c0,0.8-0.3,1.5-1,2s-1.6,0.8-2.7,0.8c-1.2,0-2.1-0.3-2.9-0.8s-1.1-1.2-1.1-2.1h0.5c0.1,0.7,0.4,1.3,1,1.7s1.4,0.6,2.4,0.6
			c0.9,0,1.7-0.2,2.3-0.7S268.6,932.2,268.6,931.5z"/>
		<path class="st7" d="M273.2,920.7v2.9h2.4v0.5h-2.4v7.5c0,0.8,0.1,1.3,0.4,1.7s0.7,0.5,1.2,0.5c0.3,0,0.6,0,1-0.1l0.1,0.5
			c-0.2,0.1-0.6,0.1-1.1,0.1c-0.8,0-1.3-0.2-1.7-0.6s-0.5-1.1-0.5-2v-7.6h-2v-0.5h2v-2.9L273.2,920.7L273.2,920.7z"/>
		<path class="st7" d="M282.1,934.3c-0.9,0-1.6-0.2-2.3-0.7s-1.3-1.1-1.7-1.9s-0.6-1.7-0.6-2.7v-0.4c0-1,0.2-1.9,0.6-2.7
			s0.9-1.4,1.6-1.9s1.4-0.7,2.2-0.7c1.2,0,2.1,0.4,2.9,1.3s1.1,1.9,1.1,3.3v0.6H278v0.6c0,0.9,0.2,1.7,0.5,2.4
			c0.4,0.7,0.9,1.3,1.5,1.7s1.3,0.6,2.1,0.6c0.7,0,1.3-0.1,1.8-0.4c0.5-0.2,0.9-0.6,1.3-1.1l0.4,0.3
			C284.9,933.8,283.7,934.3,282.1,934.3z M281.9,923.9c-1,0-1.9,0.4-2.6,1.1c-0.7,0.8-1.1,1.7-1.3,2.9h7.4v-0.1c0-0.7-0.2-1.4-0.5-2
			s-0.7-1.1-1.2-1.4S282.6,923.9,281.9,923.9z"/>
		<path class="st7" d="M296,934.1h-0.5V927c0-1.1-0.2-1.8-0.7-2.4c-0.5-0.5-1.2-0.8-2.2-0.8c-1.2,0-2.1,0.5-2.8,1.5
			c-0.4,0.6-0.7,1.3-0.9,2v6.7h-0.5v-10.6h0.5v2.5c0.4-0.9,0.9-1.5,1.5-2s1.4-0.7,2.2-0.7c0.9,0,1.6,0.2,2.2,0.6s0.9,1,1.1,1.9
			c0.3-0.8,0.8-1.4,1.5-1.8c0.7-0.5,1.5-0.7,2.4-0.7c1.1,0,2,0.3,2.5,1s0.8,1.6,0.8,2.9v6.9h-0.5v-6.8c0-1.2-0.2-2-0.7-2.6
			s-1.2-0.8-2.2-0.8c-1.3,0-2.3,0.5-3,1.5c-0.4,0.6-0.7,1.1-0.7,1.7L296,934.1L296,934.1z"/>
		<path class="st7" d="M313.2,934.1c-0.1-0.4-0.2-1.1-0.2-1.9c-0.4,0.7-1,1.2-1.7,1.6s-1.5,0.6-2.5,0.6s-1.8-0.3-2.4-0.8
			s-0.9-1.2-0.9-2.1c0-1,0.4-1.7,1.3-2.3s2-0.9,3.5-0.9h2.6v-1.5c0-0.9-0.3-1.6-0.8-2.1s-1.4-0.7-2.4-0.7s-1.8,0.2-2.4,0.7
			s-1,1.1-1,1.8h-0.5c0-0.9,0.4-1.6,1.1-2.2c0.8-0.6,1.7-0.9,2.8-0.9c1.1,0,2,0.3,2.7,0.9c0.7,0.6,1,1.4,1,2.4v5
			c0,1.2,0.1,1.9,0.3,2.4v0.1L313.2,934.1L313.2,934.1z M308.8,933.8c1,0,1.8-0.2,2.6-0.7c0.7-0.4,1.2-1.1,1.6-1.9v-2.5h-2.4
			c-1.5,0-2.7,0.3-3.5,0.9c-0.7,0.5-1,1.1-1,1.8c0,0.6,0.3,1.2,0.8,1.6S308,933.8,308.8,933.8z"/>
		<path class="st7" d="M321.2,928.7c0-1.7,0.4-3,1.1-4s1.7-1.4,2.9-1.4c0.8,0,1.5,0.2,2.1,0.5c0.6,0.4,1.1,0.9,1.5,1.6V919h0.5v15
			h-0.5v-1.7c-0.4,0.6-0.8,1.1-1.5,1.4c-0.6,0.3-1.3,0.5-2.1,0.5c-1.2,0-2.2-0.5-2.9-1.5C321.6,931.7,321.2,930.4,321.2,928.7
			L321.2,928.7z M321.7,928.9c0,1.5,0.3,2.7,0.9,3.5s1.4,1.3,2.5,1.3c0.9,0,1.6-0.2,2.2-0.6c0.6-0.4,1.1-1,1.4-1.7v-5
			c-0.6-1.8-1.8-2.7-3.6-2.7c-1.1,0-1.9,0.4-2.5,1.3C322,926,321.7,927.3,321.7,928.9z"/>
		<path class="st7" d="M336.4,934.3c-0.9,0-1.6-0.2-2.3-0.7s-1.3-1.1-1.7-1.9s-0.6-1.7-0.6-2.7v-0.4c0-1,0.2-1.9,0.6-2.7
			s0.9-1.4,1.6-1.9s1.4-0.7,2.2-0.7c1.2,0,2.1,0.4,2.9,1.3s1.1,1.9,1.1,3.3v0.6h-7.9v0.6c0,0.9,0.2,1.7,0.5,2.4
			c0.4,0.7,0.9,1.3,1.5,1.7s1.3,0.6,2.1,0.6c0.7,0,1.3-0.1,1.8-0.4c0.5-0.2,0.9-0.6,1.3-1.1l0.4,0.3
			C339.2,933.8,338,934.3,336.4,934.3z M336.2,923.9c-1,0-1.9,0.4-2.6,1.1c-0.7,0.8-1.1,1.7-1.3,2.9h7.4v-0.1c0-0.7-0.2-1.4-0.5-2
			s-0.7-1.1-1.2-1.4S336.9,923.9,336.2,923.9z"/>
		<path class="st7" d="M351.1,933.8c1,0,1.7-0.3,2.4-0.8s1-1.2,1-2.1h0.5c-0.1,1-0.4,1.8-1.2,2.5c-0.7,0.6-1.6,0.9-2.7,0.9
			c-1.3,0-2.4-0.5-3.1-1.4s-1.2-2.3-1.2-3.9v-0.4c0-1.6,0.4-2.9,1.2-3.8s1.8-1.4,3.1-1.4c1.1,0,2,0.3,2.8,1c0.7,0.7,1.1,1.6,1.2,2.7
			h-0.5c0-1-0.4-1.7-1-2.3s-1.4-0.9-2.4-0.9c-1.2,0-2.1,0.4-2.8,1.3s-1,2-1,3.5v0.3c0,1.5,0.3,2.6,1,3.5
			C349,933.4,349.9,933.8,351.1,933.8z"/>
		<path class="st7" d="M364.5,934.1c-0.1-0.4-0.2-1.1-0.2-1.9c-0.4,0.7-1,1.2-1.7,1.6s-1.5,0.6-2.5,0.6s-1.8-0.3-2.4-0.8
			s-0.9-1.2-0.9-2.1c0-1,0.4-1.7,1.3-2.3s2-0.9,3.5-0.9h2.6v-1.5c0-0.9-0.3-1.6-0.8-2.1S362,924,361,924s-1.8,0.2-2.4,0.7
			s-1,1.1-1,1.8h-0.5c0-0.9,0.4-1.6,1.1-2.2c0.8-0.6,1.7-0.9,2.8-0.9c1.1,0,2,0.3,2.7,0.9c0.7,0.6,1,1.4,1,2.4v5
			c0,1.2,0.1,1.9,0.3,2.4v0.1L364.5,934.1L364.5,934.1z M360.1,933.8c1,0,1.8-0.2,2.6-0.7c0.7-0.4,1.2-1.1,1.6-1.9v-2.5h-2.4
			c-1.5,0-2.7,0.3-3.5,0.9c-0.7,0.5-1,1.1-1,1.8c0,0.6,0.3,1.2,0.8,1.6S359.3,933.8,360.1,933.8z M363.1,919.1h0.6l-1.9,2.6h-0.6
			L363.1,919.1z"/>
		<path class="st7" d="M375.8,934.1h-0.5V927c0-1.1-0.2-1.8-0.7-2.4c-0.5-0.5-1.2-0.8-2.2-0.8c-1.2,0-2.1,0.5-2.8,1.5
			c-0.4,0.6-0.7,1.3-0.9,2v6.7h-0.5v-10.6h0.5v2.5c0.4-0.9,0.9-1.5,1.5-2s1.4-0.7,2.2-0.7c0.9,0,1.6,0.2,2.2,0.6s0.9,1,1.1,1.9
			c0.3-0.8,0.8-1.4,1.5-1.8c0.7-0.5,1.5-0.7,2.4-0.7c1.1,0,2,0.3,2.5,1s0.8,1.6,0.8,2.9v6.9h-0.5v-6.8c0-1.2-0.2-2-0.7-2.6
			s-1.2-0.8-2.2-0.8c-1.3,0-2.3,0.5-3,1.5c-0.4,0.6-0.7,1.1-0.7,1.7L375.8,934.1L375.8,934.1z"/>
		<path class="st7" d="M393,934.1c-0.1-0.4-0.2-1.1-0.2-1.9c-0.4,0.7-1,1.2-1.7,1.6s-1.5,0.6-2.5,0.6s-1.8-0.3-2.4-0.8
			s-0.9-1.2-0.9-2.1c0-1,0.4-1.7,1.3-2.3s2-0.9,3.5-0.9h2.6v-1.5c0-0.9-0.3-1.6-0.8-2.1s-1.4-0.7-2.4-0.7s-1.8,0.2-2.4,0.7
			s-1,1.1-1,1.8h-0.5c0-0.9,0.4-1.6,1.1-2.2c0.8-0.6,1.7-0.9,2.8-0.9c1.1,0,2,0.3,2.7,0.9c0.7,0.6,1,1.4,1,2.4v5
			c0,1.2,0.1,1.9,0.3,2.4v0.1L393,934.1L393,934.1z M388.6,933.8c1,0,1.8-0.2,2.6-0.7c0.7-0.4,1.2-1.1,1.6-1.9v-2.5h-2.4
			c-1.5,0-2.7,0.3-3.5,0.9c-0.7,0.5-1,1.1-1,1.8c0,0.6,0.3,1.2,0.8,1.6S387.8,933.8,388.6,933.8z"/>
		<path class="st7" d="M401.3,924l-0.7-0.1c-0.9,0-1.7,0.3-2.3,0.9s-1,1.4-1.2,2.4v6.9h-0.5v-10.6h0.5v2.2c0.3-0.7,0.7-1.3,1.3-1.7
			s1.3-0.6,2.2-0.6c0.3,0,0.6,0,0.7,0.1V924z"/>
		<path class="st7" d="M409.8,934.1c-0.1-0.4-0.2-1.1-0.2-1.9c-0.4,0.7-1,1.2-1.7,1.6s-1.5,0.6-2.5,0.6s-1.8-0.3-2.4-0.8
			s-0.9-1.2-0.9-2.1c0-1,0.4-1.7,1.3-2.3s2-0.9,3.5-0.9h2.6v-1.5c0-0.9-0.3-1.6-0.8-2.1s-1.4-0.7-2.4-0.7s-1.8,0.2-2.4,0.7
			s-1,1.1-1,1.8h-0.5c0-0.9,0.4-1.6,1.1-2.2c0.8-0.6,1.7-0.9,2.8-0.9c1.1,0,2,0.3,2.7,0.9c0.7,0.6,1,1.4,1,2.4v5
			c0,1.2,0.1,1.9,0.3,2.4v0.1L409.8,934.1L409.8,934.1z M405.5,933.8c1,0,1.8-0.2,2.6-0.7c0.7-0.4,1.2-1.1,1.6-1.9v-2.5h-2.4
			c-1.5,0-2.7,0.3-3.5,0.9c-0.7,0.5-1,1.1-1,1.8c0,0.6,0.3,1.2,0.8,1.6S404.7,933.8,405.5,933.8z"/>
		<path class="st7" d="M420.1,931.5c0-1.3-1.1-2.2-3.3-2.6c-1.3-0.3-2.2-0.6-2.7-1.1s-0.8-1-0.8-1.8s0.3-1.4,1-1.9s1.5-0.8,2.6-0.8
			s2.1,0.3,2.7,0.8c0.7,0.5,1,1.3,1,2.2H420c0-0.7-0.3-1.3-0.9-1.8s-1.4-0.7-2.3-0.7s-1.7,0.2-2.2,0.6c-0.5,0.4-0.8,0.9-0.8,1.5
			c0,0.5,0.1,0.8,0.3,1.1c0.2,0.3,0.5,0.5,1,0.7s1.1,0.4,2,0.6c0.9,0.2,1.6,0.4,2.1,0.7s0.9,0.6,1.1,1s0.3,0.8,0.3,1.4
			c0,0.8-0.3,1.5-1,2s-1.6,0.8-2.7,0.8c-1.2,0-2.1-0.3-2.9-0.8s-1.1-1.2-1.1-2.1h0.5c0.1,0.7,0.4,1.3,1,1.7s1.4,0.6,2.4,0.6
			c0.9,0,1.7-0.2,2.3-0.7S420.1,932.2,420.1,931.5z"/>
		<path class="st7" d="M429.1,928.1v6h-0.5v-14.2h4.4c1.5,0,2.6,0.4,3.4,1.1s1.2,1.7,1.2,3.1c0,1.3-0.4,2.3-1.2,3s-1.9,1.1-3.3,1.1
			L429.1,928.1L429.1,928.1z M429.1,927.6h3.9c1.3,0,2.3-0.3,3-0.9c0.7-0.6,1.1-1.5,1.1-2.6s-0.4-2-1.1-2.7c-0.7-0.6-1.7-1-3-1h-3.9
			V927.6z"/>
		<path class="st7" d="M444.9,924l-0.7-0.1c-0.9,0-1.7,0.3-2.3,0.9s-1,1.4-1.2,2.4v6.9h-0.5v-10.6h0.5v2.2c0.3-0.7,0.7-1.3,1.3-1.7
			s1.3-0.6,2.2-0.6c0.3,0,0.6,0,0.7,0.1V924z"/>
		<path class="st7" d="M446,928.6c0-1,0.2-1.9,0.6-2.7s0.9-1.4,1.6-1.9s1.5-0.7,2.4-0.7s1.7,0.2,2.4,0.7c0.7,0.4,1.3,1.1,1.6,1.9
			s0.6,1.7,0.6,2.7v0.5c0,1-0.2,1.9-0.6,2.7s-0.9,1.4-1.6,1.9s-1.5,0.7-2.4,0.7s-1.7-0.2-2.4-0.7c-0.7-0.4-1.3-1.1-1.6-1.9
			c-0.4-0.8-0.6-1.7-0.6-2.7V928.6z M446.5,929.1c0,0.9,0.2,1.7,0.5,2.4s0.8,1.3,1.5,1.7s1.3,0.6,2.1,0.6c1.2,0,2.2-0.5,2.9-1.4
			c0.8-0.9,1.1-2.1,1.1-3.5v-0.3c0-0.9-0.2-1.7-0.5-2.4c-0.4-0.7-0.8-1.3-1.5-1.7c-0.6-0.4-1.3-0.6-2.1-0.6c-1.2,0-2.2,0.5-2.9,1.4
			s-1.1,2.1-1.1,3.5V929.1z"/>
		<path class="st7" d="M470.7,928.9c0,1.6-0.4,3-1.1,3.9c-0.7,1-1.7,1.5-2.9,1.5c-0.8,0-1.5-0.2-2.1-0.5s-1.1-0.8-1.5-1.3v5.7h-0.5
			v-14.6h0.5v1.9c0.4-0.7,0.9-1.2,1.5-1.5c0.6-0.4,1.3-0.5,2.1-0.5c1.2,0,2.2,0.5,2.9,1.4S470.7,927.2,470.7,928.9L470.7,928.9z
			 M470.1,928.7c0-1.5-0.3-2.7-0.9-3.6c-0.6-0.9-1.4-1.3-2.5-1.3c-0.9,0-1.6,0.2-2.3,0.7s-1.1,1.1-1.3,2v4.9
			c0.3,0.7,0.7,1.3,1.3,1.7s1.4,0.6,2.3,0.6c1.1,0,1.9-0.4,2.5-1.3S470.1,930.4,470.1,928.7z"/>
		<path class="st7" d="M480.3,934.1c-0.1-0.4-0.2-1.1-0.2-1.9c-0.4,0.7-1,1.2-1.7,1.6s-1.5,0.6-2.5,0.6s-1.8-0.3-2.4-0.8
			s-0.9-1.2-0.9-2.1c0-1,0.4-1.7,1.3-2.3s2-0.9,3.5-0.9h2.6v-1.5c0-0.9-0.3-1.6-0.8-2.1s-1.4-0.7-2.4-0.7s-1.8,0.2-2.4,0.7
			s-1,1.1-1,1.8h-0.5c0-0.9,0.4-1.6,1.1-2.2c0.8-0.6,1.7-0.9,2.8-0.9c1.1,0,2,0.3,2.7,0.9c0.7,0.6,1,1.4,1,2.4v5
			c0,1.2,0.1,1.9,0.3,2.4v0.1L480.3,934.1L480.3,934.1z M476,933.8c1,0,1.8-0.2,2.6-0.7c0.7-0.4,1.2-1.1,1.6-1.9v-2.5h-2.4
			c-1.5,0-2.7,0.3-3.5,0.9c-0.7,0.5-1,1.1-1,1.8c0,0.6,0.3,1.2,0.8,1.6S475.2,933.8,476,933.8z"/>
		<path class="st7" d="M488.7,924l-0.7-0.1c-0.9,0-1.7,0.3-2.3,0.9s-1,1.4-1.2,2.4v6.9H484v-10.6h0.5v2.2c0.3-0.7,0.7-1.3,1.3-1.7
			s1.3-0.6,2.2-0.6c0.3,0,0.6,0,0.7,0.1V924z"/>
		<path class="st7" d="M497.2,934.1c-0.1-0.4-0.2-1.1-0.2-1.9c-0.4,0.7-1,1.2-1.7,1.6s-1.5,0.6-2.5,0.6s-1.8-0.3-2.4-0.8
			s-0.9-1.2-0.9-2.1c0-1,0.4-1.7,1.3-2.3s2-0.9,3.5-0.9h2.6v-1.5c0-0.9-0.3-1.6-0.8-2.1s-1.4-0.7-2.4-0.7s-1.8,0.2-2.4,0.7
			s-1,1.1-1,1.8h-0.5c0-0.9,0.4-1.6,1.1-2.2c0.8-0.6,1.7-0.9,2.8-0.9c1.1,0,2,0.3,2.7,0.9c0.7,0.6,1,1.4,1,2.4v5
			c0,1.2,0.1,1.9,0.3,2.4v0.1L497.2,934.1L497.2,934.1z M492.8,933.8c1,0,1.8-0.2,2.6-0.7c0.7-0.4,1.2-1.1,1.6-1.9v-2.5h-2.4
			c-1.5,0-2.7,0.3-3.5,0.9c-0.7,0.5-1,1.1-1,1.8c0,0.6,0.3,1.2,0.8,1.6S492.1,933.8,492.8,933.8z"/>
		<path class="st7" d="M506.9,920.7v2.9h2.4v0.5h-2.4v7.5c0,0.8,0.1,1.3,0.4,1.7s0.7,0.5,1.2,0.5c0.3,0,0.6,0,1-0.1l0.1,0.5
			c-0.2,0.1-0.6,0.1-1.1,0.1c-0.8,0-1.3-0.2-1.7-0.6s-0.5-1.1-0.5-2v-7.6h-2v-0.5h2v-2.9L506.9,920.7L506.9,920.7z"/>
		<path class="st7" d="M511.1,928.6c0-1,0.2-1.9,0.6-2.7c0.4-0.8,0.9-1.4,1.6-1.9s1.5-0.7,2.4-0.7s1.7,0.2,2.4,0.7
			c0.7,0.4,1.3,1.1,1.6,1.9s0.6,1.7,0.6,2.7v0.5c0,1-0.2,1.9-0.6,2.7s-0.9,1.4-1.6,1.9s-1.5,0.7-2.4,0.7s-1.7-0.2-2.4-0.7
			c-0.7-0.4-1.3-1.1-1.6-1.9c-0.4-0.8-0.6-1.7-0.6-2.7L511.1,928.6L511.1,928.6z M511.6,929.1c0,0.9,0.2,1.7,0.5,2.4
			c0.3,0.7,0.8,1.3,1.5,1.7s1.3,0.6,2.1,0.6c1.2,0,2.2-0.5,2.9-1.4c0.8-0.9,1.1-2.1,1.1-3.5v-0.3c0-0.9-0.2-1.7-0.5-2.4
			c-0.4-0.7-0.8-1.3-1.5-1.7c-0.6-0.4-1.3-0.6-2.1-0.6c-1.2,0-2.2,0.5-2.9,1.4s-1.1,2.1-1.1,3.5L511.6,929.1L511.6,929.1z"/>
		<path class="st7" d="M530.4,934.1h-0.5V927c0-1.1-0.2-1.8-0.7-2.4c-0.5-0.5-1.2-0.8-2.2-0.8c-1.2,0-2.1,0.5-2.8,1.5
			c-0.4,0.6-0.7,1.3-0.9,2v6.7h-0.5v-10.6h0.5v2.5c0.4-0.9,0.9-1.5,1.5-2s1.4-0.7,2.2-0.7c0.9,0,1.6,0.2,2.2,0.6s0.9,1,1.1,1.9
			c0.3-0.8,0.8-1.4,1.5-1.8c0.7-0.5,1.5-0.7,2.4-0.7c1.1,0,2,0.3,2.5,1s0.8,1.6,0.8,2.9v6.9H537v-6.8c0-1.2-0.2-2-0.7-2.6
			s-1.2-0.8-2.2-0.8c-1.3,0-2.3,0.5-3,1.5c-0.4,0.6-0.7,1.1-0.7,1.7L530.4,934.1L530.4,934.1z"/>
		<path class="st7" d="M547.6,934.1c-0.1-0.4-0.2-1.1-0.2-1.9c-0.4,0.7-1,1.2-1.7,1.6s-1.5,0.6-2.5,0.6s-1.8-0.3-2.4-0.8
			c-0.6-0.5-0.9-1.2-0.9-2.1c0-1,0.4-1.7,1.3-2.3c0.9-0.6,2-0.9,3.5-0.9h2.6v-1.5c0-0.9-0.3-1.6-0.8-2.1s-1.4-0.7-2.4-0.7
			s-1.8,0.2-2.4,0.7c-0.6,0.5-1,1.1-1,1.8h-0.5c0-0.9,0.4-1.6,1.1-2.2c0.8-0.6,1.7-0.9,2.8-0.9s2,0.3,2.7,0.9c0.7,0.6,1,1.4,1,2.4v5
			c0,1.2,0.1,1.9,0.3,2.4v0.1L547.6,934.1L547.6,934.1z M543.3,933.8c1,0,1.8-0.2,2.6-0.7c0.7-0.4,1.2-1.1,1.6-1.9v-2.5H545
			c-1.5,0-2.7,0.3-3.5,0.9c-0.7,0.5-1,1.1-1,1.8c0,0.6,0.3,1.2,0.8,1.6S542.5,933.8,543.3,933.8z"/>
		<path class="st7" d="M556,924l-0.7-0.1c-0.9,0-1.7,0.3-2.3,0.9s-1,1.4-1.2,2.4v6.9h-0.5v-10.6h0.5v2.2c0.3-0.7,0.7-1.3,1.3-1.7
			s1.3-0.6,2.2-0.6c0.3,0,0.6,0,0.7,0.1V924z"/>
		<path class="st7" d="M563.6,934.1v-10h-1.8v-0.5h1.8V922c0-1,0.3-1.7,0.7-2.3c0.5-0.5,1.2-0.8,2-0.8c0.5,0,0.9,0.1,1.2,0.2
			l-0.1,0.5c-0.3-0.1-0.7-0.1-1.2-0.1c-0.7,0-1.2,0.2-1.6,0.7c-0.4,0.5-0.6,1.1-0.6,1.9v1.5h2.8v0.5H564v10L563.6,934.1L563.6,934.1
			z"/>
		<path class="st7" d="M568.3,928.6c0-1,0.2-1.9,0.6-2.7c0.4-0.8,0.9-1.4,1.6-1.9s1.5-0.7,2.4-0.7s1.7,0.2,2.4,0.7
			c0.7,0.4,1.3,1.1,1.6,1.9s0.6,1.7,0.6,2.7v0.5c0,1-0.2,1.9-0.6,2.7s-0.9,1.4-1.6,1.9s-1.5,0.7-2.4,0.7s-1.7-0.2-2.4-0.7
			c-0.7-0.4-1.3-1.1-1.6-1.9c-0.4-0.8-0.6-1.7-0.6-2.7V928.6z M568.8,929.1c0,0.9,0.2,1.7,0.5,2.4s0.8,1.3,1.5,1.7s1.3,0.6,2.1,0.6
			c1.2,0,2.2-0.5,2.9-1.4c0.8-0.9,1.1-2.1,1.1-3.5v-0.3c0-0.9-0.2-1.7-0.5-2.4c-0.4-0.7-0.8-1.3-1.5-1.7c-0.6-0.4-1.3-0.6-2.1-0.6
			c-1.2,0-2.2,0.5-2.9,1.4s-1.1,2.1-1.1,3.5V929.1z"/>
		<path class="st7" d="M581.3,920.7v2.9h2.4v0.5h-2.4v7.5c0,0.8,0.1,1.3,0.4,1.7s0.7,0.5,1.2,0.5c0.3,0,0.6,0,1-0.1l0.1,0.5
			c-0.2,0.1-0.6,0.1-1.1,0.1c-0.8,0-1.3-0.2-1.7-0.6s-0.5-1.1-0.5-2v-7.6h-2v-0.5h2v-2.9L581.3,920.7L581.3,920.7z"/>
		<path class="st7" d="M585.5,928.6c0-1,0.2-1.9,0.6-2.7c0.4-0.8,0.9-1.4,1.6-1.9s1.5-0.7,2.4-0.7s1.7,0.2,2.4,0.7
			c0.7,0.4,1.3,1.1,1.6,1.9s0.6,1.7,0.6,2.7v0.5c0,1-0.2,1.9-0.6,2.7s-0.9,1.4-1.6,1.9s-1.5,0.7-2.4,0.7s-1.7-0.2-2.4-0.7
			c-0.7-0.4-1.3-1.1-1.6-1.9c-0.4-0.8-0.6-1.7-0.6-2.7V928.6z M586,929.1c0,0.9,0.2,1.7,0.5,2.4s0.8,1.3,1.5,1.7s1.3,0.6,2.1,0.6
			c1.2,0,2.2-0.5,2.9-1.4c0.8-0.9,1.1-2.1,1.1-3.5v-0.3c0-0.9-0.2-1.7-0.5-2.4c-0.4-0.7-0.8-1.3-1.5-1.7c-0.6-0.4-1.3-0.6-2.1-0.6
			c-1.2,0-2.2,0.5-2.9,1.4s-1.1,2.1-1.1,3.5V929.1z"/>
		<path class="st7" d="M603.8,931.5c0-1.3-1.1-2.2-3.3-2.6c-1.3-0.3-2.2-0.6-2.7-1.1s-0.8-1-0.8-1.8s0.3-1.4,1-1.9s1.5-0.8,2.6-0.8
			s2.1,0.3,2.7,0.8c0.7,0.5,1,1.3,1,2.2h-0.5c0-0.7-0.3-1.3-0.9-1.8c-0.6-0.5-1.4-0.7-2.3-0.7c-0.9,0-1.7,0.2-2.2,0.6
			c-0.5,0.4-0.8,0.9-0.8,1.5c0,0.5,0.1,0.8,0.3,1.1s0.5,0.5,1,0.7s1.1,0.4,2,0.6c0.9,0.2,1.6,0.4,2.1,0.7s0.9,0.6,1.1,1
			c0.2,0.4,0.3,0.8,0.3,1.4c0,0.8-0.3,1.5-1,2s-1.6,0.8-2.7,0.8c-1.2,0-2.1-0.3-2.9-0.8s-1.1-1.2-1.1-2.1h0.5c0.1,0.7,0.4,1.3,1,1.7
			s1.4,0.6,2.4,0.6c0.9,0,1.7-0.2,2.3-0.7S603.8,932.2,603.8,931.5z"/>
		<path class="st7" d="M611.9,920.3c0-0.2,0.1-0.3,0.2-0.4s0.2-0.2,0.4-0.2s0.3,0.1,0.4,0.2s0.2,0.2,0.2,0.4c0,0.1-0.1,0.3-0.2,0.4
			c-0.1,0.1-0.2,0.2-0.4,0.2s-0.3-0.1-0.4-0.2C611.9,920.5,611.9,920.4,611.9,920.3z M612.7,934.1h-0.5v-10.6h0.5V934.1z"/>
		<path class="st7" d="M616.6,926c0.3-0.8,0.9-1.5,1.5-1.9c0.7-0.5,1.4-0.7,2.2-0.7c1.1,0,2,0.3,2.5,1c0.6,0.6,0.8,1.6,0.8,2.9v6.9
			h-0.5v-6.9c0-1.1-0.2-2-0.7-2.5s-1.2-0.8-2.2-0.8c-0.9,0-1.7,0.3-2.4,1s-1.1,1.5-1.4,2.5v6.8h-0.5v-10.6h0.5v2.3H616.6z"/>
		<path class="st7" d="M630.7,933.8c1,0,1.7-0.3,2.4-0.8s1-1.2,1-2.1h0.5c-0.1,1-0.4,1.8-1.2,2.5c-0.7,0.6-1.6,0.9-2.7,0.9
			c-1.3,0-2.4-0.5-3.1-1.4s-1.2-2.3-1.2-3.9v-0.4c0-1.6,0.4-2.9,1.2-3.8s1.8-1.4,3.1-1.4c1.1,0,2,0.3,2.8,1c0.7,0.7,1.1,1.6,1.2,2.7
			H634c0-1-0.4-1.7-1-2.3s-1.4-0.9-2.4-0.9c-1.2,0-2.1,0.4-2.8,1.3s-1,2-1,3.5v0.3c0,1.5,0.3,2.6,1,3.5
			C628.5,933.4,629.5,933.8,630.7,933.8z"/>
		<path class="st7" d="M641.9,924l-0.7-0.1c-0.9,0-1.7,0.3-2.3,0.9s-1,1.4-1.2,2.4v6.9h-0.5v-10.6h0.5v2.2c0.3-0.7,0.7-1.3,1.3-1.7
			s1.3-0.6,2.2-0.6c0.3,0,0.6,0,0.7,0.1V924z"/>
		<path class="st7" d="M647.5,934.3c-0.9,0-1.6-0.2-2.3-0.7s-1.3-1.1-1.7-1.9s-0.6-1.7-0.6-2.7v-0.4c0-1,0.2-1.9,0.6-2.7
			c0.4-0.8,0.9-1.4,1.6-1.9c0.7-0.5,1.4-0.7,2.2-0.7c1.2,0,2.1,0.4,2.9,1.3s1.1,1.9,1.1,3.3v0.6h-7.9v0.6c0,0.9,0.2,1.7,0.5,2.4
			c0.4,0.7,0.9,1.3,1.5,1.7s1.3,0.6,2.1,0.6c0.7,0,1.3-0.1,1.8-0.4c0.5-0.2,0.9-0.6,1.3-1.1l0.4,0.3
			C650.2,933.8,649.1,934.3,647.5,934.3z M647.3,923.9c-1,0-1.9,0.4-2.6,1.1c-0.7,0.8-1.1,1.7-1.3,2.9h7.4v-0.1c0-0.7-0.2-1.4-0.5-2
			s-0.7-1.1-1.2-1.4S648,923.9,647.3,923.9z"/>
		<path class="st7" d="M655.6,919.4h0.6l-1.9,2.6h-0.6L655.6,919.4z M654.4,934.1h-0.5v-10.6h0.5V934.1z"/>
		<path class="st7" d="M665.8,928.9c0,1.6-0.4,3-1.1,3.9c-0.7,1-1.7,1.5-2.9,1.5c-0.8,0-1.5-0.2-2.1-0.5s-1.1-0.8-1.5-1.4v1.7h-0.5
			v-15h0.5v6.4c0.4-0.7,0.9-1.2,1.5-1.6c0.6-0.4,1.3-0.5,2.1-0.5c1.2,0,2.2,0.5,2.9,1.4S665.8,927.1,665.8,928.9L665.8,928.9z
			 M665.3,928.7c0-1.5-0.3-2.7-0.9-3.6c-0.6-0.9-1.4-1.3-2.5-1.3c-0.9,0-1.6,0.2-2.3,0.7c-0.6,0.5-1.1,1.1-1.3,2v4.8
			c0.3,0.7,0.7,1.3,1.3,1.7s1.4,0.6,2.3,0.6c1.1,0,1.9-0.4,2.5-1.3C665,931.6,665.3,930.4,665.3,928.7z"/>
		<path class="st7" d="M669.4,934.1h-0.5v-15h0.5V934.1z"/>
		<path class="st7" d="M676.6,934.3c-0.9,0-1.6-0.2-2.3-0.7s-1.3-1.1-1.7-1.9S672,930,672,929v-0.4c0-1,0.2-1.9,0.6-2.7
			c0.4-0.8,0.9-1.4,1.6-1.9c0.7-0.5,1.4-0.7,2.2-0.7c1.2,0,2.1,0.4,2.9,1.3s1.1,1.9,1.1,3.3v0.6h-7.9v0.6c0,0.9,0.2,1.7,0.5,2.4
			c0.4,0.7,0.9,1.3,1.5,1.7s1.3,0.6,2.1,0.6c0.7,0,1.3-0.1,1.8-0.4c0.5-0.2,0.9-0.6,1.3-1.1l0.4,0.3
			C679.3,933.8,678.2,934.3,676.6,934.3z M676.4,923.9c-1,0-1.9,0.4-2.6,1.1c-0.7,0.8-1.1,1.7-1.3,2.9h7.4v-0.1c0-0.7-0.2-1.4-0.5-2
			s-0.7-1.1-1.2-1.4S677.1,923.9,676.4,923.9z"/>
		<path class="st7" d="M689.4,931.5c0-1.3-1.1-2.2-3.3-2.6c-1.3-0.3-2.2-0.6-2.7-1.1s-0.8-1-0.8-1.8s0.3-1.4,1-1.9s1.5-0.8,2.6-0.8
			s2.1,0.3,2.7,0.8c0.7,0.5,1,1.3,1,2.2h-0.5c0-0.7-0.3-1.3-0.9-1.8c-0.6-0.5-1.4-0.7-2.3-0.7c-0.9,0-1.7,0.2-2.2,0.6
			c-0.5,0.4-0.8,0.9-0.8,1.5c0,0.5,0.1,0.8,0.3,1.1s0.5,0.5,1,0.7s1.1,0.4,2,0.6c0.9,0.2,1.6,0.4,2.1,0.7s0.9,0.6,1.1,1
			c0.2,0.4,0.3,0.8,0.3,1.4c0,0.8-0.3,1.5-1,2s-1.6,0.8-2.7,0.8c-1.2,0-2.1-0.3-2.9-0.8s-1.1-1.2-1.1-2.1h0.5c0.1,0.7,0.4,1.3,1,1.7
			s1.4,0.6,2.4,0.6c0.9,0,1.7-0.2,2.3-0.7S689.4,932.2,689.4,931.5z"/>
		<path class="st7" d="M249.7,957.8c1,0,1.7-0.3,2.4-0.8s1-1.2,1-2.1h0.5c-0.1,1-0.4,1.8-1.2,2.5c-0.7,0.6-1.6,0.9-2.7,0.9
			c-1.3,0-2.4-0.5-3.1-1.4s-1.2-2.3-1.2-3.9v-0.4c0-1.6,0.4-2.9,1.2-3.8s1.8-1.4,3.1-1.4c1.1,0,2,0.3,2.8,1c0.7,0.7,1.1,1.6,1.2,2.7
			h-0.5c0-1-0.4-1.7-1-2.3s-1.4-0.9-2.4-0.9c-1.2,0-2.1,0.4-2.8,1.3s-1,2-1,3.5v0.3c0,1.5,0.3,2.6,1,3.5
			C247.6,957.4,248.5,957.8,249.7,957.8z"/>
		<path class="st7" d="M255.5,952.6c0-1,0.2-1.9,0.6-2.7c0.4-0.8,0.9-1.4,1.6-1.9s1.5-0.7,2.4-0.7s1.7,0.2,2.4,0.7
			c0.7,0.4,1.3,1.1,1.6,1.9s0.6,1.7,0.6,2.7v0.5c0,1-0.2,1.9-0.6,2.7s-0.9,1.4-1.6,1.9s-1.5,0.7-2.4,0.7s-1.7-0.2-2.4-0.7
			c-0.7-0.4-1.3-1.1-1.6-1.9c-0.4-0.8-0.6-1.7-0.6-2.7V952.6z M256,953.1c0,0.9,0.2,1.7,0.5,2.4s0.8,1.3,1.5,1.7s1.3,0.6,2.1,0.6
			c1.2,0,2.2-0.5,2.9-1.4c0.8-0.9,1.1-2.1,1.1-3.5v-0.3c0-0.9-0.2-1.7-0.5-2.4c-0.4-0.7-0.8-1.3-1.5-1.7c-0.6-0.4-1.3-0.6-2.1-0.6
			c-1.2,0-2.2,0.5-2.9,1.4s-1.1,2.1-1.1,3.5V953.1z"/>
		<path class="st7" d="M267.8,950c0.3-0.8,0.9-1.5,1.5-1.9c0.7-0.5,1.4-0.7,2.2-0.7c1.1,0,2,0.3,2.5,1c0.6,0.6,0.8,1.6,0.8,2.9v6.9
			h-0.5v-6.9c0-1.1-0.2-2-0.7-2.5s-1.2-0.8-2.2-0.8c-0.9,0-1.7,0.3-2.4,1s-1.1,1.5-1.4,2.5v6.8h-0.5v-10.6h0.5v2.3H267.8z"/>
		<path class="st7" d="M291.1,952.9c0,1.6-0.4,3-1.1,3.9c-0.7,1-1.7,1.5-2.9,1.5c-0.8,0-1.5-0.2-2.1-0.5s-1.1-0.8-1.5-1.3v5.7H283
			v-14.6h0.5v1.9c0.4-0.7,0.9-1.2,1.5-1.5c0.6-0.4,1.3-0.5,2.1-0.5c1.2,0,2.2,0.5,2.9,1.4S291.1,951.2,291.1,952.9L291.1,952.9z
			 M290.5,952.7c0-1.5-0.3-2.7-0.9-3.6c-0.6-0.9-1.4-1.3-2.5-1.3c-0.9,0-1.6,0.2-2.3,0.7s-1.1,1.1-1.3,2v4.9
			c0.3,0.7,0.7,1.3,1.3,1.7s1.4,0.6,2.3,0.6c1.1,0,1.9-0.4,2.5-1.3S290.5,954.4,290.5,952.7z"/>
		<path class="st7" d="M293.1,952.6c0-1,0.2-1.9,0.6-2.7s0.9-1.4,1.6-1.9s1.5-0.7,2.4-0.7s1.7,0.2,2.4,0.7c0.7,0.4,1.3,1.1,1.6,1.9
			s0.6,1.7,0.6,2.7v0.5c0,1-0.2,1.9-0.6,2.7s-0.9,1.4-1.6,1.9s-1.5,0.7-2.4,0.7s-1.7-0.2-2.4-0.7c-0.7-0.4-1.3-1.1-1.6-1.9
			c-0.4-0.8-0.6-1.7-0.6-2.7V952.6z M293.7,953.1c0,0.9,0.2,1.7,0.5,2.4s0.8,1.3,1.5,1.7s1.3,0.6,2.1,0.6c1.2,0,2.2-0.5,2.9-1.4
			c0.8-0.9,1.1-2.1,1.1-3.5v-0.3c0-0.9-0.2-1.7-0.5-2.4c-0.4-0.7-0.8-1.3-1.5-1.7c-0.6-0.4-1.3-0.6-2.1-0.6c-1.2,0-2.2,0.5-2.9,1.4
			s-1.1,2.1-1.1,3.5V953.1z"/>
		<path class="st7" d="M308.5,957.8c1,0,1.7-0.3,2.4-0.8s1-1.2,1-2.1h0.5c-0.1,1-0.4,1.8-1.2,2.5c-0.7,0.6-1.6,0.9-2.7,0.9
			c-1.3,0-2.4-0.5-3.1-1.4s-1.2-2.3-1.2-3.9v-0.4c0-1.6,0.4-2.9,1.2-3.8s1.8-1.4,3.1-1.4c1.1,0,2,0.3,2.8,1c0.7,0.7,1.1,1.6,1.2,2.7
			H312c0-1-0.4-1.7-1-2.3s-1.4-0.9-2.4-0.9c-1.2,0-2.1,0.4-2.8,1.3s-1,2-1,3.5v0.3c0,1.5,0.3,2.6,1,3.5
			C306.4,957.4,307.4,957.8,308.5,957.8z"/>
		<path class="st7" d="M321.9,958.1c-0.1-0.4-0.2-1.1-0.2-1.9c-0.4,0.7-1,1.2-1.7,1.6s-1.5,0.6-2.5,0.6s-1.8-0.3-2.4-0.8
			s-0.9-1.2-0.9-2.1c0-1,0.4-1.7,1.3-2.3s2-0.9,3.5-0.9h2.6v-1.5c0-0.9-0.3-1.6-0.8-2.1s-1.4-0.7-2.4-0.7s-1.8,0.2-2.4,0.7
			s-1,1.1-1,1.8h-0.5c0-0.9,0.4-1.6,1.1-2.2c0.8-0.6,1.7-0.9,2.8-0.9c1.1,0,2,0.3,2.7,0.9c0.7,0.6,1,1.4,1,2.4v5
			c0,1.2,0.1,1.9,0.3,2.4v0.1L321.9,958.1L321.9,958.1z M317.6,957.8c1,0,1.8-0.2,2.6-0.7c0.7-0.4,1.2-1.1,1.6-1.9v-2.5h-2.4
			c-1.5,0-2.7,0.3-3.5,0.9c-0.7,0.5-1,1.1-1,1.8c0,0.6,0.3,1.2,0.8,1.6S316.8,957.8,317.6,957.8z"/>
		<path class="st7" d="M331.1,958.1h-0.5v-15h0.5V958.1z"/>
		<path class="st7" d="M341.6,958.1v-1.7c-0.3,0.6-0.8,1-1.4,1.4s-1.4,0.5-2.3,0.5c-1.2,0-2-0.3-2.6-1s-0.9-1.7-0.9-2.9v-6.8h0.5
			v6.8c0,1.1,0.3,2,0.8,2.5s1.2,0.9,2.2,0.9s1.8-0.2,2.5-0.7c0.6-0.5,1-1.2,1.2-2.1v-7.4h0.5v10.6L341.6,958.1L341.6,958.1z"/>
		<path class="st7" d="M345.4,957.6h7.5v0.5h-8.2v-0.4l6.9-9.6H345v-0.5h7.4v0.5L345.4,957.6z"/>
		<path class="st7" d="M354.6,960.6l-0.4-0.3c0.5-0.7,0.8-1.4,0.9-2.1v-1.6h0.5v1.4C355.6,959,355.3,959.9,354.6,960.6z"/>
		<path class="st7" d="M363.1,952.7c0-1.7,0.4-3,1.1-4s1.7-1.4,2.9-1.4c0.8,0,1.5,0.2,2.1,0.5c0.6,0.4,1.1,0.9,1.5,1.5v-1.9h0.5V962
			h-0.5v-5.7c-0.4,0.6-0.9,1-1.5,1.4c-0.6,0.3-1.3,0.5-2.1,0.5c-1.2,0-2.2-0.5-2.9-1.5C363.5,955.7,363.1,954.4,363.1,952.7
			L363.1,952.7z M363.6,952.9c0,1.5,0.3,2.7,0.9,3.5s1.4,1.3,2.5,1.3c0.9,0,1.6-0.2,2.2-0.6c0.6-0.4,1.1-1,1.4-1.7v-5
			c-0.3-0.9-0.8-1.5-1.4-2s-1.4-0.7-2.2-0.7c-1.1,0-1.9,0.4-2.5,1.3C363.9,950,363.6,951.3,363.6,952.9z"/>
		<path class="st7" d="M381.6,958.1v-1.7c-0.3,0.6-0.8,1-1.4,1.4s-1.4,0.5-2.3,0.5c-1.2,0-2-0.3-2.6-1s-0.9-1.7-0.9-2.9v-6.8h0.5
			v6.8c0,1.1,0.3,2,0.8,2.5s1.2,0.9,2.2,0.9s1.8-0.2,2.5-0.7c0.6-0.5,1-1.2,1.2-2.1v-7.4h0.5v10.6L381.6,958.1L381.6,958.1z"/>
		<path class="st7" d="M389.3,958.3c-0.9,0-1.6-0.2-2.3-0.7s-1.3-1.1-1.7-1.9s-0.6-1.7-0.6-2.7v-0.4c0-1,0.2-1.9,0.6-2.7
			s0.9-1.4,1.6-1.9s1.4-0.7,2.2-0.7c1.2,0,2.1,0.4,2.9,1.3s1.1,1.9,1.1,3.3v0.6h-7.9v0.6c0,0.9,0.2,1.7,0.5,2.4
			c0.4,0.7,0.9,1.3,1.5,1.7s1.3,0.6,2.1,0.6c0.7,0,1.3-0.1,1.8-0.4c0.5-0.2,0.9-0.6,1.3-1.1l0.4,0.3
			C392,957.8,390.8,958.3,389.3,958.3z M389.1,947.9c-1,0-1.9,0.4-2.6,1.1c-0.7,0.8-1.1,1.7-1.3,2.9h7.4v-0.1c0-0.7-0.2-1.4-0.5-2
			s-0.7-1.1-1.2-1.4S389.7,947.9,389.1,947.9z"/>
		<path class="st7" d="M407.2,958.1c-0.1-0.4-0.2-1.1-0.2-1.9c-0.4,0.7-1,1.2-1.7,1.6s-1.5,0.6-2.5,0.6s-1.8-0.3-2.4-0.8
			s-0.9-1.2-0.9-2.1c0-1,0.4-1.7,1.3-2.3s2-0.9,3.5-0.9h2.6v-1.5c0-0.9-0.3-1.6-0.8-2.1s-1.4-0.7-2.4-0.7s-1.8,0.2-2.4,0.7
			s-1,1.1-1,1.8h-0.5c0-0.9,0.4-1.6,1.1-2.2c0.8-0.6,1.7-0.9,2.8-0.9c1.1,0,2,0.3,2.7,0.9c0.7,0.6,1,1.4,1,2.4v5
			c0,1.2,0.1,1.9,0.3,2.4v0.1L407.2,958.1L407.2,958.1z M402.8,957.8c1,0,1.8-0.2,2.6-0.7c0.7-0.4,1.2-1.1,1.6-1.9v-2.5h-2.4
			c-1.5,0-2.7,0.3-3.5,0.9c-0.7,0.5-1,1.1-1,1.8c0,0.6,0.3,1.2,0.8,1.6S402,957.8,402.8,957.8z"/>
		<path class="st7" d="M411.5,958.1H411v-15h0.5V958.1z"/>
		<path class="st7" d="M418.6,957.8c1,0,1.7-0.3,2.4-0.8s1-1.2,1-2.1h0.5c-0.1,1-0.4,1.8-1.2,2.5c-0.7,0.6-1.6,0.9-2.7,0.9
			c-1.3,0-2.4-0.5-3.1-1.4s-1.2-2.3-1.2-3.9v-0.4c0-1.6,0.4-2.9,1.2-3.8s1.8-1.4,3.1-1.4c1.1,0,2,0.3,2.8,1c0.7,0.7,1.1,1.6,1.2,2.7
			H422c0-1-0.4-1.7-1-2.3s-1.4-0.9-2.4-0.9c-1.2,0-2.1,0.4-2.8,1.3s-1,2-1,3.5v0.3c0,1.5,0.3,2.6,1,3.5
			C416.5,957.4,417.4,957.8,418.6,957.8z"/>
		<path class="st7" d="M432,958.1c-0.1-0.4-0.2-1.1-0.2-1.9c-0.4,0.7-1,1.2-1.7,1.6s-1.5,0.6-2.5,0.6s-1.8-0.3-2.4-0.8
			s-0.9-1.2-0.9-2.1c0-1,0.4-1.7,1.3-2.3s2-0.9,3.5-0.9h2.6v-1.5c0-0.9-0.3-1.6-0.8-2.1s-1.4-0.7-2.4-0.7s-1.8,0.2-2.4,0.7
			s-1,1.1-1,1.8h-0.5c0-0.9,0.4-1.6,1.1-2.2c0.8-0.6,1.7-0.9,2.8-0.9c1.1,0,2,0.3,2.7,0.9c0.7,0.6,1,1.4,1,2.4v5
			c0,1.2,0.1,1.9,0.3,2.4v0.1L432,958.1L432,958.1z M427.6,957.8c1,0,1.8-0.2,2.6-0.7c0.7-0.4,1.2-1.1,1.6-1.9v-2.5h-2.4
			c-1.5,0-2.7,0.3-3.5,0.9c-0.7,0.5-1,1.1-1,1.8c0,0.6,0.3,1.2,0.8,1.6S426.8,957.8,427.6,957.8z"/>
		<path class="st7" d="M436.2,950c0.3-0.8,0.9-1.5,1.5-1.9c0.7-0.5,1.4-0.7,2.2-0.7c1.1,0,2,0.3,2.5,1c0.6,0.6,0.8,1.6,0.8,2.9v6.9
			h-0.5v-6.9c0-1.1-0.2-2-0.7-2.5s-1.2-0.8-2.2-0.8c-0.9,0-1.7,0.3-2.4,1s-1.1,1.5-1.4,2.5v6.8h-0.5v-10.6h0.5v2.3H436.2z"/>
		<path class="st7" d="M446.5,957.6h7.5v0.5h-8.2v-0.4l6.9-9.6h-6.6v-0.5h7.4v0.5L446.5,957.6z"/>
		<path class="st7" d="M463,958.1c-0.1-0.4-0.2-1.1-0.2-1.9c-0.4,0.7-1,1.2-1.7,1.6s-1.5,0.6-2.5,0.6s-1.8-0.3-2.4-0.8
			s-0.9-1.2-0.9-2.1c0-1,0.4-1.7,1.3-2.3s2-0.9,3.5-0.9h2.6v-1.5c0-0.9-0.3-1.6-0.8-2.1s-1.4-0.7-2.4-0.7s-1.8,0.2-2.4,0.7
			s-1,1.1-1,1.8h-0.5c0-0.9,0.4-1.6,1.1-2.2c0.8-0.6,1.7-0.9,2.8-0.9c1.1,0,2,0.3,2.7,0.9c0.7,0.6,1,1.4,1,2.4v5
			c0,1.2,0.1,1.9,0.3,2.4v0.1L463,958.1L463,958.1z M458.7,957.8c1,0,1.8-0.2,2.6-0.7c0.7-0.4,1.2-1.1,1.6-1.9v-2.5h-2.4
			c-1.5,0-2.7,0.3-3.5,0.9c-0.7,0.5-1,1.1-1,1.8c0,0.6,0.3,1.2,0.8,1.6S457.9,957.8,458.7,957.8z"/>
		<path class="st7" d="M478.1,955.5c0-1.3-1.1-2.2-3.3-2.6c-1.3-0.3-2.2-0.6-2.7-1.1s-0.8-1-0.8-1.8s0.3-1.4,1-1.9s1.5-0.8,2.6-0.8
			s2.1,0.3,2.7,0.8c0.7,0.5,1,1.3,1,2.2h-0.5c0-0.7-0.3-1.3-0.9-1.8s-1.4-0.7-2.3-0.7s-1.7,0.2-2.2,0.6c-0.5,0.4-0.8,0.9-0.8,1.5
			c0,0.5,0.1,0.8,0.3,1.1c0.2,0.3,0.5,0.5,1,0.7s1.1,0.4,2,0.6c0.9,0.2,1.6,0.4,2.1,0.7s0.9,0.6,1.1,1s0.3,0.8,0.3,1.4
			c0,0.8-0.3,1.5-1,2s-1.6,0.8-2.7,0.8c-1.2,0-2.1-0.3-2.9-0.8s-1.1-1.2-1.1-2.1h0.5c0.1,0.7,0.4,1.3,1,1.7s1.4,0.6,2.4,0.6
			c0.9,0,1.7-0.2,2.3-0.7S478.1,956.2,478.1,955.5z"/>
		<path class="st7" d="M488.6,958.1v-1.7c-0.3,0.6-0.8,1-1.4,1.4s-1.4,0.5-2.3,0.5c-1.2,0-2-0.3-2.6-1s-0.9-1.7-0.9-2.9v-6.8h0.5
			v6.8c0,1.1,0.3,2,0.8,2.5s1.2,0.9,2.2,0.9s1.8-0.2,2.5-0.7c0.6-0.5,1-1.2,1.2-2.1v-7.4h0.5v10.6L488.6,958.1L488.6,958.1z"/>
		<path class="st7" d="M504.8,958.1h-0.5V951c0-1.1-0.2-1.8-0.7-2.4c-0.5-0.5-1.2-0.8-2.2-0.8c-1.2,0-2.1,0.5-2.8,1.5
			c-0.4,0.6-0.7,1.3-0.9,2v6.7h-0.5v-10.6h0.5v2.5c0.4-0.9,0.9-1.5,1.5-2s1.4-0.7,2.2-0.7c0.9,0,1.6,0.2,2.2,0.6s0.9,1,1.1,1.9
			c0.3-0.8,0.8-1.4,1.5-1.8c0.7-0.5,1.5-0.7,2.4-0.7c1.1,0,2,0.3,2.5,1s0.8,1.6,0.8,2.9v6.9h-0.5v-6.8c0-1.2-0.2-2-0.7-2.6
			s-1.2-0.8-2.2-0.8c-1.3,0-2.3,0.5-3,1.5c-0.4,0.6-0.7,1.1-0.7,1.7L504.8,958.1L504.8,958.1z"/>
		<path class="st7" d="M522,958.1c-0.1-0.4-0.2-1.1-0.2-1.9c-0.4,0.7-1,1.2-1.7,1.6s-1.5,0.6-2.5,0.6s-1.8-0.3-2.4-0.8
			c-0.6-0.5-0.9-1.2-0.9-2.1c0-1,0.4-1.7,1.3-2.3c0.9-0.6,2-0.9,3.5-0.9h2.6v-1.5c0-0.9-0.3-1.6-0.8-2.1s-1.4-0.7-2.4-0.7
			s-1.8,0.2-2.4,0.7c-0.6,0.5-1,1.1-1,1.8h-0.5c0-0.9,0.4-1.6,1.1-2.2c0.8-0.6,1.7-0.9,2.8-0.9s2,0.3,2.7,0.9c0.7,0.6,1,1.4,1,2.4v5
			c0,1.2,0.1,1.9,0.3,2.4v0.1L522,958.1L522,958.1z M517.6,957.8c1,0,1.8-0.2,2.6-0.7c0.7-0.4,1.2-1.1,1.6-1.9v-2.5h-2.4
			c-1.5,0-2.7,0.3-3.5,0.9c-0.7,0.5-1,1.1-1,1.8c0,0.6,0.3,1.2,0.8,1.6S516.9,957.8,517.6,957.8z M520.6,943.1h0.6l-1.9,2.6h-0.6
			L520.6,943.1z"/>
		<path class="st7" d="M528.8,952.3l3.4-4.7h0.7l-3.7,5.1l3.9,5.4h-0.7l-3.6-5l-3.6,5h-0.7l3.9-5.4l-3.7-5.1h0.7L528.8,952.3z"/>
		<path class="st7" d="M535.1,944.3c0-0.2,0.1-0.3,0.2-0.4s0.2-0.2,0.4-0.2s0.3,0.1,0.4,0.2s0.2,0.2,0.2,0.4c0,0.1-0.1,0.3-0.2,0.4
			c-0.1,0.1-0.2,0.2-0.4,0.2s-0.3-0.1-0.4-0.2C535.2,944.5,535.1,944.4,535.1,944.3z M535.9,958.1h-0.5v-10.6h0.5V958.1z"/>
		<path class="st7" d="M547,958.1h-0.5V951c0-1.1-0.2-1.8-0.7-2.4c-0.5-0.5-1.2-0.8-2.2-0.8c-1.2,0-2.1,0.5-2.8,1.5
			c-0.4,0.6-0.7,1.3-0.9,2v6.7h-0.5v-10.6h0.5v2.5c0.4-0.9,0.9-1.5,1.5-2s1.4-0.7,2.2-0.7c0.9,0,1.6,0.2,2.2,0.6s0.9,1,1.1,1.9
			c0.3-0.8,0.8-1.4,1.5-1.8c0.7-0.5,1.5-0.7,2.4-0.7c1.1,0,2,0.3,2.5,1s0.8,1.6,0.8,2.9v6.9h-0.5v-6.8c0-1.2-0.2-2-0.7-2.6
			s-1.2-0.8-2.2-0.8c-1.3,0-2.3,0.5-3,1.5c-0.4,0.6-0.7,1.1-0.7,1.7L547,958.1L547,958.1z"/>
		<path class="st7" d="M564.2,958.1c-0.1-0.4-0.2-1.1-0.2-1.9c-0.4,0.7-1,1.2-1.7,1.6s-1.5,0.6-2.5,0.6s-1.8-0.3-2.4-0.8
			c-0.6-0.5-0.9-1.2-0.9-2.1c0-1,0.4-1.7,1.3-2.3c0.9-0.6,2-0.9,3.5-0.9h2.6v-1.5c0-0.9-0.3-1.6-0.8-2.1s-1.4-0.7-2.4-0.7
			s-1.8,0.2-2.4,0.7c-0.6,0.5-1,1.1-1,1.8h-0.5c0-0.9,0.4-1.6,1.1-2.2c0.8-0.6,1.7-0.9,2.8-0.9s2,0.3,2.7,0.9c0.7,0.6,1,1.4,1,2.4v5
			c0,1.2,0.1,1.9,0.3,2.4v0.1L564.2,958.1L564.2,958.1z M559.8,957.8c1,0,1.8-0.2,2.6-0.7c0.7-0.4,1.2-1.1,1.6-1.9v-2.5h-2.4
			c-1.5,0-2.7,0.3-3.5,0.9c-0.7,0.5-1,1.1-1,1.8c0,0.6,0.3,1.2,0.8,1.6S559,957.8,559.8,957.8z"/>
		<path class="st7" d="M576.5,958.3c-0.9,0-1.6-0.2-2.3-0.7s-1.3-1.1-1.7-1.9s-0.6-1.7-0.6-2.7v-0.4c0-1,0.2-1.9,0.6-2.7
			c0.4-0.8,0.9-1.4,1.6-1.9c0.7-0.5,1.4-0.7,2.2-0.7c1.2,0,2.1,0.4,2.9,1.3s1.1,1.9,1.1,3.3v0.6h-7.9v0.6c0,0.9,0.2,1.7,0.5,2.4
			c0.4,0.7,0.9,1.3,1.5,1.7s1.3,0.6,2.1,0.6c0.7,0,1.3-0.1,1.8-0.4c0.5-0.2,0.9-0.6,1.3-1.1l0.4,0.3
			C579.2,957.8,578,958.3,576.5,958.3z M576.3,947.9c-1,0-1.9,0.4-2.6,1.1c-0.7,0.8-1.1,1.7-1.3,2.9h7.4v-0.1c0-0.7-0.2-1.4-0.5-2
			s-0.7-1.1-1.2-1.4S576.9,947.9,576.3,947.9z"/>
		<path class="st7" d="M585.8,952.3l3.4-4.7h0.7l-3.7,5.1l3.9,5.4h-0.7l-3.6-5l-3.6,5h-0.7l3.9-5.4l-3.7-5.1h0.7L585.8,952.3z"/>
		<path class="st7" d="M600.4,952.9c0,1.6-0.4,3-1.1,3.9c-0.7,1-1.7,1.5-2.9,1.5c-0.8,0-1.5-0.2-2.1-0.5s-1.1-0.8-1.5-1.3v5.7h-0.5
			v-14.6h0.5v1.9c0.4-0.7,0.9-1.2,1.5-1.5c0.6-0.4,1.3-0.5,2.1-0.5c1.2,0,2.2,0.5,2.9,1.4S600.4,951.2,600.4,952.9L600.4,952.9z
			 M599.8,952.7c0-1.5-0.3-2.7-0.9-3.6c-0.6-0.9-1.4-1.3-2.5-1.3c-0.9,0-1.6,0.2-2.3,0.7s-1.1,1.1-1.3,2v4.9
			c0.3,0.7,0.7,1.3,1.3,1.7s1.4,0.6,2.3,0.6c1.1,0,1.9-0.4,2.5-1.3S599.8,954.4,599.8,952.7z"/>
		<path class="st7" d="M607.9,948l-0.7-0.1c-0.9,0-1.7,0.3-2.3,0.9s-1,1.4-1.2,2.4v6.9h-0.5v-10.6h0.5v2.2c0.3-0.7,0.7-1.3,1.3-1.7
			s1.3-0.6,2.2-0.6c0.3,0,0.6,0,0.7,0.1V948z"/>
		<path class="st7" d="M613.6,958.3c-0.9,0-1.6-0.2-2.3-0.7s-1.3-1.1-1.7-1.9S609,954,609,953v-0.4c0-1,0.2-1.9,0.6-2.7
			c0.4-0.8,0.9-1.4,1.6-1.9c0.7-0.5,1.4-0.7,2.2-0.7c1.2,0,2.1,0.4,2.9,1.3s1.1,1.9,1.1,3.3v0.6h-7.9v0.6c0,0.9,0.2,1.7,0.5,2.4
			c0.4,0.7,0.9,1.3,1.5,1.7s1.3,0.6,2.1,0.6c0.7,0,1.3-0.1,1.8-0.4c0.5-0.2,0.9-0.6,1.3-1.1l0.4,0.3
			C616.3,957.8,615.1,958.3,613.6,958.3z M613.4,947.9c-1,0-1.9,0.4-2.6,1.1c-0.7,0.8-1.1,1.7-1.3,2.9h7.4v-0.1c0-0.7-0.2-1.4-0.5-2
			s-0.7-1.1-1.2-1.4S614,947.9,613.4,947.9z"/>
		<path class="st7" d="M626.3,955.5c0-1.3-1.1-2.2-3.3-2.6c-1.3-0.3-2.2-0.6-2.7-1.1s-0.8-1-0.8-1.8s0.3-1.4,1-1.9s1.5-0.8,2.6-0.8
			s2.1,0.3,2.7,0.8c0.7,0.5,1,1.3,1,2.2h-0.5c0-0.7-0.3-1.3-0.9-1.8c-0.6-0.5-1.4-0.7-2.3-0.7c-0.9,0-1.7,0.2-2.2,0.6
			c-0.5,0.4-0.8,0.9-0.8,1.5c0,0.5,0.1,0.8,0.3,1.1s0.5,0.5,1,0.7s1.1,0.4,2,0.6c0.9,0.2,1.6,0.4,2.1,0.7s0.9,0.6,1.1,1
			c0.2,0.4,0.3,0.8,0.3,1.4c0,0.8-0.3,1.5-1,2s-1.6,0.8-2.7,0.8c-1.2,0-2.1-0.3-2.9-0.8s-1.1-1.2-1.1-2.1h0.5c0.1,0.7,0.4,1.3,1,1.7
			s1.4,0.6,2.4,0.6c0.9,0,1.7-0.2,2.3-0.7S626.3,956.2,626.3,955.5z"/>
		<path class="st7" d="M629.6,944.3c0-0.2,0.1-0.3,0.2-0.4s0.2-0.2,0.4-0.2s0.3,0.1,0.4,0.2s0.2,0.2,0.2,0.4c0,0.1-0.1,0.3-0.2,0.4
			c-0.1,0.1-0.2,0.2-0.4,0.2s-0.3-0.1-0.4-0.2C629.7,944.5,629.6,944.4,629.6,944.3z M630.4,958.1h-0.5v-10.6h0.5V958.1z"/>
		<path class="st7" d="M633.1,952.6c0-1,0.2-1.9,0.6-2.7c0.4-0.8,0.9-1.4,1.6-1.9s1.5-0.7,2.4-0.7s1.7,0.2,2.4,0.7
			c0.7,0.4,1.3,1.1,1.6,1.9s0.6,1.7,0.6,2.7v0.5c0,1-0.2,1.9-0.6,2.7s-0.9,1.4-1.6,1.9s-1.5,0.7-2.4,0.7s-1.7-0.2-2.4-0.7
			c-0.7-0.4-1.3-1.1-1.6-1.9c-0.4-0.8-0.6-1.7-0.6-2.7V952.6z M633.6,953.1c0,0.9,0.2,1.7,0.5,2.4s0.8,1.3,1.5,1.7s1.3,0.6,2.1,0.6
			c1.2,0,2.2-0.5,2.9-1.4c0.8-0.9,1.1-2.1,1.1-3.5v-0.3c0-0.9-0.2-1.7-0.5-2.4c-0.4-0.7-0.8-1.3-1.5-1.7c-0.6-0.4-1.3-0.6-2.1-0.6
			c-1.2,0-2.2,0.5-2.9,1.4s-1.1,2.1-1.1,3.5V953.1z M639.2,943.2h0.6l-1.9,2.6h-0.6L639.2,943.2z"/>
		<path class="st7" d="M645.4,950c0.3-0.8,0.9-1.5,1.5-1.9c0.7-0.5,1.4-0.7,2.2-0.7c1.1,0,2,0.3,2.5,1c0.6,0.6,0.8,1.6,0.8,2.9v6.9
			H652v-6.9c0-1.1-0.2-2-0.7-2.5s-1.2-0.8-2.2-0.8c-0.9,0-1.7,0.3-2.4,1s-1.1,1.5-1.4,2.5v6.8h-0.5v-10.6h0.5v2.3H645.4z"/>
		<path class="st7" d="M664.4,958.3c-0.9,0-1.6-0.2-2.3-0.7s-1.3-1.1-1.7-1.9s-0.6-1.7-0.6-2.7v-0.4c0-1,0.2-1.9,0.6-2.7
			c0.4-0.8,0.9-1.4,1.6-1.9c0.7-0.5,1.4-0.7,2.2-0.7c1.2,0,2.1,0.4,2.9,1.3s1.1,1.9,1.1,3.3v0.6h-7.9v0.6c0,0.9,0.2,1.7,0.5,2.4
			c0.4,0.7,0.9,1.3,1.5,1.7s1.3,0.6,2.1,0.6c0.7,0,1.3-0.1,1.8-0.4c0.5-0.2,0.9-0.6,1.3-1.1l0.4,0.3
			C667.2,957.8,666,958.3,664.4,958.3z M664.2,947.9c-1,0-1.9,0.4-2.6,1.1c-0.7,0.8-1.1,1.7-1.3,2.9h7.4v-0.1c0-0.7-0.2-1.4-0.5-2
			s-0.7-1.1-1.2-1.4S664.9,947.9,664.2,947.9z"/>
		<path class="st7" d="M671.2,950c0.3-0.8,0.9-1.5,1.5-1.9c0.7-0.5,1.4-0.7,2.2-0.7c1.1,0,2,0.3,2.5,1c0.6,0.6,0.8,1.6,0.8,2.9v6.9
			h-0.5v-6.9c0-1.1-0.2-2-0.7-2.5s-1.2-0.8-2.2-0.8c-0.9,0-1.7,0.3-2.4,1s-1.1,1.5-1.4,2.5v6.8h-0.5v-10.6h0.5v2.3H671.2z"/>
		<path class="st7" d="M690.3,958.3c-0.9,0-1.6-0.2-2.3-0.7s-1.3-1.1-1.7-1.9s-0.6-1.7-0.6-2.7v-0.4c0-1,0.2-1.9,0.6-2.7
			c0.4-0.8,0.9-1.4,1.6-1.9c0.7-0.5,1.4-0.7,2.2-0.7c1.2,0,2.1,0.4,2.9,1.3s1.1,1.9,1.1,3.3v0.6h-7.9v0.6c0,0.9,0.2,1.7,0.5,2.4
			c0.4,0.7,0.9,1.3,1.5,1.7s1.3,0.6,2.1,0.6c0.7,0,1.3-0.1,1.8-0.4c0.5-0.2,0.9-0.6,1.3-1.1l0.4,0.3
			C693,957.8,691.8,958.3,690.3,958.3z M690.1,947.9c-1,0-1.9,0.4-2.6,1.1c-0.7,0.8-1.1,1.7-1.3,2.9h7.4v-0.1c0-0.7-0.2-1.4-0.5-2
			s-0.7-1.1-1.2-1.4S690.7,947.9,690.1,947.9z"/>
		<path class="st7" d="M697.2,958.1h-0.5v-15h0.5V958.1z"/>
		<path class="st7" d="M246,968.3c0-0.2,0.1-0.3,0.2-0.4s0.2-0.2,0.4-0.2s0.3,0.1,0.4,0.2s0.2,0.2,0.2,0.4c0,0.1-0.1,0.3-0.2,0.4
			c-0.1,0.1-0.2,0.2-0.4,0.2s-0.3-0.1-0.4-0.2C246,968.5,246,968.4,246,968.3z M246.8,982.1h-0.5v-10.6h0.5V982.1z"/>
		<path class="st7" d="M251,976.1v6h-0.5v-14.2h4.4c1.5,0,2.6,0.4,3.4,1.1s1.2,1.7,1.2,3.1c0,1.3-0.4,2.3-1.2,3s-1.9,1.1-3.3,1.1
			L251,976.1L251,976.1z M251,975.6h3.9c1.3,0,2.3-0.3,3-0.9c0.7-0.6,1.1-1.5,1.1-2.6s-0.4-2-1.1-2.7c-0.7-0.6-1.7-1-3-1H251V975.6z
			"/>
		<path class="st7" d="M262.8,974c0.3-0.8,0.9-1.5,1.5-1.9c0.7-0.5,1.4-0.7,2.2-0.7c1.1,0,2,0.3,2.5,1c0.6,0.6,0.8,1.6,0.8,2.9v6.9
			h-0.5v-6.9c0-1.1-0.2-2-0.7-2.5s-1.2-0.8-2.2-0.8c-0.9,0-1.7,0.3-2.4,1s-1.1,1.5-1.4,2.5v6.8h-0.5v-15h0.5v6.7H262.8z"/>
		<path class="st7" d="M272.4,976.6c0-1,0.2-1.9,0.6-2.7s0.9-1.4,1.6-1.9s1.5-0.7,2.4-0.7s1.7,0.2,2.4,0.7c0.7,0.4,1.3,1.1,1.6,1.9
			s0.6,1.7,0.6,2.7v0.5c0,1-0.2,1.9-0.6,2.7s-0.9,1.4-1.6,1.9s-1.5,0.7-2.4,0.7s-1.7-0.2-2.4-0.7c-0.7-0.4-1.3-1.1-1.6-1.9
			c-0.4-0.8-0.6-1.7-0.6-2.7V976.6z M272.9,977.1c0,0.9,0.2,1.7,0.5,2.4s0.8,1.3,1.5,1.7s1.3,0.6,2.1,0.6c1.2,0,2.2-0.5,2.9-1.4
			c0.8-0.9,1.1-2.1,1.1-3.5v-0.3c0-0.9-0.2-1.7-0.5-2.4c-0.4-0.7-0.8-1.3-1.5-1.7c-0.6-0.4-1.3-0.6-2.1-0.6c-1.2,0-2.2,0.5-2.9,1.4
			s-1.1,2.1-1.1,3.5V977.1z"/>
		<path class="st7" d="M284.7,974c0.3-0.8,0.9-1.5,1.5-1.9c0.7-0.5,1.4-0.7,2.2-0.7c1.1,0,2,0.3,2.5,1c0.6,0.6,0.8,1.6,0.8,2.9v6.9
			h-0.5v-6.9c0-1.1-0.2-2-0.7-2.5s-1.2-0.8-2.2-0.8c-0.9,0-1.7,0.3-2.4,1s-1.1,1.5-1.4,2.5v6.8H284v-10.6h0.5v2.3H284.7z"/>
		<path class="st7" d="M298.9,982.3c-0.9,0-1.6-0.2-2.3-0.7s-1.3-1.1-1.7-1.9s-0.6-1.7-0.6-2.7v-0.4c0-1,0.2-1.9,0.6-2.7
			s0.9-1.4,1.6-1.9s1.4-0.7,2.2-0.7c1.2,0,2.1,0.4,2.9,1.3s1.1,1.9,1.1,3.3v0.6h-7.9v0.6c0,0.9,0.2,1.7,0.5,2.4
			c0.4,0.7,0.9,1.3,1.5,1.7s1.3,0.6,2.1,0.6c0.7,0,1.3-0.1,1.8-0.4c0.5-0.2,0.9-0.6,1.3-1.1l0.4,0.3
			C301.7,981.8,300.5,982.3,298.9,982.3z M298.7,971.9c-1,0-1.9,0.4-2.6,1.1c-0.7,0.8-1.1,1.7-1.3,2.9h7.4v-0.1c0-0.7-0.2-1.4-0.5-2
			s-0.7-1.1-1.2-1.4S299.4,971.9,298.7,971.9z"/>
		<path class="st7" d="M314.8,982.1h-0.5v-13.6l-4.1,1.5v-0.6l4.5-1.7h0.1V982.1z"/>
		<path class="st7" d="M329.3,982.1h-8.5v-0.5l4.9-5.6c0.8-0.9,1.4-1.8,1.8-2.5s0.6-1.4,0.6-2c0-1-0.3-1.9-0.9-2.4s-1.5-0.9-2.6-0.9
			c-0.7,0-1.3,0.2-1.8,0.5s-1,0.8-1.3,1.3c-0.3,0.6-0.5,1.2-0.5,1.9h-0.5c0-0.8,0.2-1.5,0.5-2.1c0.4-0.7,0.8-1.2,1.5-1.5
			s1.3-0.6,2.1-0.6c1.3,0,2.2,0.3,2.9,1c0.7,0.7,1.1,1.6,1.1,2.8c0,1.1-0.6,2.4-1.9,4l-0.9,1.1l-4.3,5h7.8L329.3,982.1L329.3,982.1z
			"/>
		<path class="st7" d="M337.5,976.1v6H337v-14.2h4.4c1.5,0,2.6,0.4,3.4,1.1s1.2,1.7,1.2,3.1c0,1.3-0.4,2.3-1.2,3s-1.9,1.1-3.3,1.1
			L337.5,976.1L337.5,976.1z M337.5,975.6h3.9c1.3,0,2.3-0.3,3-0.9c0.7-0.6,1.1-1.5,1.1-2.6s-0.4-2-1.1-2.7c-0.7-0.6-1.7-1-3-1h-3.9
			V975.6z"/>
		<path class="st7" d="M353.4,972l-0.7-0.1c-0.9,0-1.7,0.3-2.3,0.9s-1,1.4-1.2,2.4v6.9h-0.5v-10.6h0.5v2.2c0.3-0.7,0.7-1.3,1.3-1.7
			s1.3-0.6,2.2-0.6c0.3,0,0.6,0,0.7,0.1V972z"/>
		<path class="st7" d="M354.4,976.6c0-1,0.2-1.9,0.6-2.7s0.9-1.4,1.6-1.9s1.5-0.7,2.4-0.7s1.7,0.2,2.4,0.7c0.7,0.4,1.3,1.1,1.6,1.9
			s0.6,1.7,0.6,2.7v0.5c0,1-0.2,1.9-0.6,2.7s-0.9,1.4-1.6,1.9s-1.5,0.7-2.4,0.7s-1.7-0.2-2.4-0.7c-0.7-0.4-1.3-1.1-1.6-1.9
			c-0.4-0.8-0.6-1.7-0.6-2.7V976.6z M354.9,977.1c0,0.9,0.2,1.7,0.5,2.4s0.8,1.3,1.5,1.7s1.3,0.6,2.1,0.6c1.2,0,2.2-0.5,2.9-1.4
			c0.8-0.9,1.1-2.1,1.1-3.5v-0.3c0-0.9-0.2-1.7-0.5-2.4c-0.4-0.7-0.8-1.3-1.5-1.7c-0.6-0.4-1.3-0.6-2.1-0.6c-1.2,0-2.2,0.5-2.9,1.4
			s-1.1,2.1-1.1,3.5V977.1z"/>
		<path class="st7" d="M372,967.9l5.8,13.4l5.9-13.4h0.8v14.2H384v-13.4l-5.9,13.4h-0.4l-5.9-13.4v13.4h-0.5v-14.2H372z"/>
		<path class="st7" d="M395,982.1c-0.1-0.4-0.2-1.1-0.2-1.9c-0.4,0.7-1,1.2-1.7,1.6s-1.5,0.6-2.5,0.6s-1.8-0.3-2.4-0.8
			s-0.9-1.2-0.9-2.1c0-1,0.4-1.7,1.3-2.3s2-0.9,3.5-0.9h2.6v-1.5c0-0.9-0.3-1.6-0.8-2.1s-1.4-0.7-2.4-0.7s-1.8,0.2-2.4,0.7
			s-1,1.1-1,1.8h-0.5c0-0.9,0.4-1.6,1.1-2.2c0.8-0.6,1.7-0.9,2.8-0.9c1.1,0,2,0.3,2.7,0.9c0.7,0.6,1,1.4,1,2.4v5
			c0,1.2,0.1,1.9,0.3,2.4v0.1L395,982.1L395,982.1z M390.6,981.8c1,0,1.8-0.2,2.6-0.7c0.7-0.4,1.2-1.1,1.6-1.9v-2.5h-2.4
			c-1.5,0-2.7,0.3-3.5,0.9c-0.7,0.5-1,1.1-1,1.8c0,0.6,0.3,1.2,0.8,1.6S389.8,981.8,390.6,981.8z"/>
		<path class="st7" d="M401.8,976.3l3.4-4.7h0.7l-3.7,5.1l3.9,5.4h-0.7l-3.6-5l-3.6,5h-0.7l3.9-5.4l-3.7-5.1h0.7L401.8,976.3z"/>
		<path class="st7" d="M408,981.7c0-0.2,0.1-0.3,0.2-0.4s0.2-0.2,0.4-0.2s0.3,0.1,0.4,0.2s0.2,0.2,0.2,0.4c0,0.1-0.1,0.3-0.2,0.4
			c-0.1,0.1-0.2,0.2-0.4,0.2s-0.3-0.1-0.4-0.2C408,981.9,408,981.8,408,981.7z"/>
	</g>
	
		<image style="display:inline;overflow:visible;enable-background:new    ;" width="471" height="106" xlink:href="6EEE0740.png"  transform="matrix(1.1031 0 0 1.1031 239.0759 575.7013)">
	</image>
	<g class="st6">
		<rect x="229.2" y="1205.7" class="st2" width="307.3" height="36.7"/>
		<path class="st7" d="M233.2,1210.3l-2.9-1.1l0.2-0.5l2.9,1.2l0.6-3.5h0.5l-0.7,3.4l3.2-1.2l0.1,0.5l-3.3,1.2l1.7,2.8l-0.4,0.3
			l-1.6-2.8l-2.4,2.8l-0.4-0.3L233.2,1210.3z"/>
		<path class="st7" d="M238.8,1213.8l-0.9,5.4h-0.5l2.2-12.8h3.8c1.2,0,2.1,0.4,2.7,1s0.9,1.6,0.7,2.7s-0.7,2-1.5,2.7s-1.9,1-3.2,1
			L238.8,1213.8L238.8,1213.8z M238.9,1213.4h3.3c1.1,0,2.1-0.3,2.8-0.8s1.2-1.3,1.4-2.3s0-1.8-0.5-2.4s-1.3-0.9-2.4-0.9H240
			L238.9,1213.4z"/>
		<path class="st7" d="M253.4,1210.1h-0.6c-0.8,0-1.5,0.3-2.2,0.9s-1.1,1.3-1.4,2.1l-1.1,6.2h-0.5l1.6-9.5h0.5l-0.4,2
			c0.4-0.7,0.9-1.2,1.5-1.6s1.2-0.6,1.9-0.6c0.2,0,0.4,0,0.7,0.1V1210.1z"/>
		<path class="st7" d="M253.6,1214.3c0.1-0.9,0.4-1.7,0.9-2.4s1-1.3,1.7-1.7s1.4-0.6,2.2-0.6c0.6,0,1.2,0.1,1.7,0.4s0.9,0.7,1.2,1.3
			s0.5,1.2,0.5,1.9c0,0.4,0,0.9-0.1,1.5c-0.1,0.9-0.4,1.7-0.9,2.4s-1,1.3-1.7,1.7s-1.4,0.6-2.2,0.6c-0.7,0-1.2-0.1-1.7-0.4
			s-0.9-0.7-1.2-1.3s-0.5-1.2-0.5-1.9C253.5,1215.4,253.5,1214.9,253.6,1214.3z M254,1216.2c0.1,0.8,0.4,1.5,0.9,2s1.2,0.7,1.9,0.7
			c0.9,0,1.8-0.3,2.5-1s1.3-1.5,1.6-2.6c0.3-0.9,0.3-1.8,0.2-2.6c-0.1-0.8-0.4-1.5-1-2s-1.1-0.7-1.9-0.7c-0.9,0-1.8,0.3-2.5,1
			s-1.3,1.5-1.6,2.6C254,1214.5,253.9,1215.4,254,1216.2z M260.3,1205.8h0.6l-2,2.3h-0.5L260.3,1205.8z"/>
		<path class="st7" d="M266.6,1213.9l3.6-4.2h0.6l-4,4.6l2.7,4.8h-0.6l-2.4-4.5l-3.8,4.5h-0.6l4.2-4.9l-2.5-4.6h0.6L266.6,1213.9z"
			/>
		<path class="st7" d="M272,1219.2h-0.5l1.6-9.5h0.5L272,1219.2z M273.4,1206.7c0-0.1,0.1-0.2,0.2-0.3s0.2-0.1,0.3-0.1
			c0.1,0,0.2,0.1,0.3,0.2s0.1,0.2,0.1,0.4c0,0.1-0.1,0.2-0.2,0.3s-0.2,0.1-0.4,0.1c-0.1,0-0.2-0.1-0.3-0.2
			S273.4,1206.9,273.4,1206.7z"/>
		<path class="st7" d="M281.7,1219.2h-0.5l1.1-6.3c0.1-0.4,0.1-0.8,0.1-1.1c0-0.6-0.2-1-0.6-1.3c-0.3-0.3-0.8-0.5-1.4-0.4
			c-0.8,0-1.6,0.3-2.3,1c-0.7,0.6-1.2,1.4-1.5,2.2l-1,6H275l1.6-9.5h0.5l-0.4,2.2c0.5-0.8,1-1.4,1.7-1.8s1.3-0.6,2-0.6
			c0.8,0,1.4,0.2,1.8,0.6s0.6,0.9,0.7,1.7c0.4-0.7,1-1.2,1.6-1.6s1.4-0.6,2.1-0.6s1.3,0.2,1.7,0.6s0.7,0.9,0.7,1.6
			c0,0.4,0,0.9-0.1,1.4l-1.1,6.1h-0.5l1.1-6.1c0.1-0.4,0.1-0.8,0.1-1.2c0-0.6-0.2-1.1-0.6-1.4s-0.8-0.5-1.5-0.5
			c-0.6,0-1.1,0.2-1.6,0.4c-0.5,0.3-1,0.6-1.4,1s-0.6,0.9-0.8,1.4L281.7,1219.2z"/>
		<path class="st7" d="M296.9,1219.2c0-0.5,0-1.1,0.2-1.7c-0.5,0.6-1.1,1.1-1.8,1.4s-1.4,0.5-2.2,0.5c-0.8,0-1.4-0.2-1.9-0.7
			s-0.7-1.1-0.5-1.8c0.1-0.9,0.6-1.6,1.5-2.1s1.9-0.8,3.2-0.8h2.3l0.3-1.4c0.1-0.8,0-1.4-0.5-1.8s-1.1-0.7-1.9-0.7s-1.5,0.2-2.2,0.6
			s-1,1-1.2,1.7h-0.5c0.2-0.8,0.6-1.5,1.4-2s1.6-0.8,2.5-0.8c1,0,1.7,0.3,2.2,0.8s0.7,1.3,0.6,2.2l-0.9,5.1l-0.1,0.6
			c0,0.3,0,0.6,0,0.9v0.1L296.9,1219.2L296.9,1219.2z M293.1,1218.9c0.8,0,1.5-0.2,2.2-0.6s1.3-1,1.8-1.7l0.4-2.3h-2.1
			c-1.2,0-2.2,0.2-2.9,0.7s-1.2,1-1.4,1.8c-0.1,0.6,0,1.1,0.4,1.5S292.4,1218.9,293.1,1218.9z"/>
		<path class="st7" d="M301.8,1211.9c0.5-0.8,1-1.4,1.7-1.8s1.3-0.6,2-0.6s1.3,0.2,1.7,0.6s0.7,0.9,0.7,1.6c0,0.4,0,0.9-0.1,1.4
			l-1.1,6.1h-0.5l1.1-6.1c0.1-0.4,0.1-0.8,0.1-1.2c0-0.6-0.2-1.1-0.5-1.4s-0.8-0.5-1.4-0.5c-0.8,0-1.6,0.3-2.3,0.9
			c-0.7,0.6-1.2,1.3-1.5,2.2l-1.1,6.1h-0.5l1.6-9.5h0.5L301.8,1211.9z"/>
		<path class="st7" d="M312.9,1207.2l-0.4,2.6h2.1l-0.1,0.5h-2.1l-1.2,7v0.5c0,0.4,0.1,0.7,0.2,0.9s0.5,0.3,0.8,0.3
			c0.2,0,0.5,0,1-0.1v0.4c-0.3,0.1-0.6,0.1-1,0.1c-1,0-1.5-0.5-1.6-1.5c0-0.3,0-0.6,0.1-0.9l1.2-6.8h-1.7l0.1-0.5h1.7l0.4-2.6
			L312.9,1207.2L312.9,1207.2z"/>
		<path class="st7" d="M318.9,1219.4c-0.8,0-1.4-0.2-2-0.6s-0.9-1-1.2-1.8s-0.3-1.5-0.2-2.3l0.1-0.4c0.1-0.9,0.4-1.7,0.9-2.4
			s1-1.3,1.6-1.7s1.3-0.6,2-0.6c1,0,1.7,0.4,2.3,1.1s0.8,1.6,0.7,2.7v0.3l-0.1,0.6h-6.9l-0.1,0.5c-0.1,0.5-0.1,1,0,1.5
			c0.1,0.8,0.4,1.5,1,2s1.1,0.8,1.9,0.8c1.1,0,2.1-0.4,3-1.3l0.3,0.2C321.3,1218.9,320.2,1219.4,318.9,1219.4z M320.2,1210
			c-0.9,0-1.7,0.3-2.4,1s-1.2,1.6-1.6,2.7h6.4v-0.1c0.1-0.4,0.1-0.8,0-1.3c-0.1-0.7-0.4-1.2-0.8-1.7S320.8,1210,320.2,1210z"/>
		<path class="st7" d="M332,1219.4c-0.8,0-1.4-0.2-2-0.6s-0.9-1-1.2-1.8s-0.3-1.5-0.2-2.3l0.1-0.4c0.1-0.9,0.4-1.7,0.9-2.4
			s1-1.3,1.6-1.7s1.3-0.6,2-0.6c1,0,1.7,0.4,2.3,1.1s0.8,1.6,0.7,2.7v0.3l-0.1,0.6h-6.9l-0.1,0.5c-0.1,0.5-0.1,1,0,1.5
			c0.1,0.8,0.4,1.5,1,2s1.1,0.8,1.9,0.8c1.1,0,2.1-0.4,3-1.3l0.3,0.2C334.4,1218.9,333.3,1219.4,332,1219.4z M333.3,1210
			c-0.9,0-1.7,0.3-2.4,1s-1.2,1.6-1.6,2.7h6.4v-0.1c0.1-0.4,0.1-0.8,0-1.3c-0.1-0.7-0.4-1.2-0.8-1.7S334,1210,333.3,1210z"/>
		<path class="st7" d="M339.1,1211.9c0.5-0.8,1-1.4,1.7-1.8s1.3-0.6,2-0.6s1.3,0.2,1.7,0.6s0.7,0.9,0.7,1.6c0,0.4,0,0.9-0.1,1.4
			l-1.1,6.1h-0.5l1.1-6.1c0.1-0.4,0.1-0.8,0.1-1.2c0-0.6-0.2-1.1-0.5-1.4s-0.8-0.5-1.4-0.5c-0.8,0-1.6,0.3-2.3,0.9
			c-0.7,0.6-1.2,1.3-1.5,2.2l-1.1,6.1h-0.5l1.6-9.5h0.5L339.1,1211.9z"/>
		<path class="st7" d="M353,1211.9c0.5-0.8,1-1.4,1.7-1.8s1.3-0.6,2-0.6s1.3,0.2,1.7,0.6s0.7,0.9,0.7,1.6c0,0.4,0,0.9-0.1,1.4
			l-1.1,6.1h-0.5l1.1-6.1c0.1-0.4,0.1-0.8,0.1-1.2c0-0.6-0.2-1.1-0.5-1.4s-0.8-0.5-1.4-0.5c-0.8,0-1.6,0.3-2.3,0.9
			c-0.7,0.6-1.2,1.3-1.5,2.2l-1.1,6.1h-0.5l1.6-9.5h0.5L353,1211.9z"/>
		<path class="st7" d="M367.2,1219.2l0.3-1.5c-0.4,0.6-0.9,1-1.5,1.3s-1.2,0.4-2,0.4c-0.7,0-1.3-0.2-1.8-0.6s-0.7-1-0.8-1.7
			c0-0.5,0-0.9,0.1-1.4l1-6h0.5l-1,6.1c-0.1,0.4-0.1,0.8-0.1,1.2c0,0.6,0.2,1.1,0.6,1.5s0.8,0.5,1.5,0.5c0.9,0,1.6-0.2,2.3-0.7
			s1.1-1.1,1.4-1.8l1.2-6.7h0.5l-1.6,9.5h-0.6V1219.2z"/>
		<path class="st7" d="M374.1,1219.4c-0.8,0-1.4-0.2-2-0.6s-0.9-1-1.2-1.8s-0.3-1.5-0.2-2.3l0.1-0.4c0.1-0.9,0.4-1.7,0.9-2.4
			s1-1.3,1.6-1.7s1.3-0.6,2-0.6c1,0,1.7,0.4,2.3,1.1s0.8,1.6,0.7,2.7v0.3l-0.1,0.6h-6.9l-0.1,0.5c-0.1,0.5-0.1,1,0,1.5
			c0.1,0.8,0.4,1.5,1,2s1.1,0.8,1.9,0.8c1.1,0,2.1-0.4,3-1.3l0.3,0.2C376.5,1218.9,375.4,1219.4,374.1,1219.4z M375.4,1210
			c-0.9,0-1.7,0.3-2.4,1s-1.2,1.6-1.6,2.7h6.4v-0.1c0.1-0.4,0.1-0.8,0-1.3c-0.1-0.7-0.4-1.2-0.8-1.7S376,1210,375.4,1210z"/>
		<path class="st7" d="M385.7,1216.9c0.2-1.1-0.6-1.9-2.4-2.3l-1-0.3c-1.3-0.4-1.9-1.2-1.8-2.3c0.1-0.7,0.5-1.3,1.1-1.7
			s1.4-0.7,2.3-0.7c1,0,1.7,0.2,2.2,0.7s0.8,1.2,0.7,2h-0.5c0.1-0.7-0.1-1.2-0.6-1.6s-1.1-0.6-1.9-0.6s-1.4,0.2-2,0.5
			s-0.9,0.8-1,1.4c-0.2,0.9,0.4,1.6,1.6,2l1.3,0.4l0.4,0.1c1.4,0.5,2,1.3,1.8,2.5c-0.1,0.8-0.5,1.4-1.2,1.8s-1.5,0.7-2.4,0.7
			c-1,0-1.8-0.2-2.3-0.7s-0.8-1.1-0.8-1.9h0.5c0,0.7,0.2,1.2,0.7,1.6s1.1,0.6,2,0.6c0.8,0,1.5-0.2,2.1-0.6
			S385.6,1217.5,385.7,1216.9z"/>
		<path class="st7" d="M391.4,1207.2l-0.4,2.6h2.1l-0.1,0.5h-2.1l-1.2,7v0.5c0,0.4,0.1,0.7,0.2,0.9s0.5,0.3,0.8,0.3
			c0.2,0,0.5,0,1-0.1v0.4c-0.3,0.1-0.6,0.1-1,0.1c-1,0-1.5-0.5-1.6-1.5c0-0.3,0-0.6,0.1-0.9l1.2-6.8h-1.7l0.1-0.5h1.7l0.4-2.6
			L391.4,1207.2L391.4,1207.2z"/>
		<path class="st7" d="M399.6,1210.1H399c-0.8,0-1.5,0.3-2.2,0.9s-1.1,1.3-1.4,2.1l-1.1,6.2h-0.5l1.6-9.5h0.5l-0.4,2
			c0.4-0.7,0.9-1.2,1.5-1.6s1.2-0.6,1.9-0.6c0.2,0,0.4,0,0.7,0.1V1210.1z"/>
		<path class="st7" d="M405.5,1219.2c0-0.5,0-1.1,0.2-1.7c-0.5,0.6-1.1,1.1-1.8,1.4s-1.4,0.5-2.2,0.5c-0.8,0-1.4-0.2-1.9-0.7
			s-0.7-1.1-0.5-1.8c0.1-0.9,0.6-1.6,1.5-2.1s1.9-0.8,3.2-0.8h2.3l0.3-1.4c0.1-0.8,0-1.4-0.5-1.8s-1.1-0.7-1.9-0.7s-1.5,0.2-2.2,0.6
			s-1,1-1.2,1.7h-0.5c0.2-0.8,0.6-1.5,1.4-2s1.6-0.8,2.5-0.8c1,0,1.7,0.3,2.2,0.8s0.7,1.3,0.6,2.2l-0.9,5.1l-0.1,0.6
			c0,0.3,0,0.6,0,0.9v0.1L405.5,1219.2L405.5,1219.2z M401.7,1218.9c0.8,0,1.5-0.2,2.2-0.6s1.3-1,1.8-1.7l0.4-2.3H404
			c-1.2,0-2.2,0.2-2.9,0.7s-1.2,1-1.4,1.8c-0.1,0.6,0,1.1,0.4,1.5S401.1,1218.9,401.7,1218.9z"/>
		<path class="st7" d="M415,1216.9c0.2-1.1-0.6-1.9-2.4-2.3l-1-0.3c-1.3-0.4-1.9-1.2-1.8-2.3c0.1-0.7,0.5-1.3,1.1-1.7
			s1.4-0.7,2.3-0.7c1,0,1.7,0.2,2.2,0.7s0.8,1.2,0.7,2h-0.5c0.1-0.7-0.1-1.2-0.6-1.6s-1.1-0.6-1.9-0.6s-1.4,0.2-2,0.5
			s-0.9,0.8-1,1.4c-0.2,0.9,0.4,1.6,1.6,2l1.3,0.4l0.4,0.1c1.4,0.5,2,1.3,1.8,2.5c-0.1,0.8-0.5,1.4-1.2,1.8s-1.5,0.7-2.4,0.7
			c-1,0-1.8-0.2-2.3-0.7s-0.8-1.1-0.8-1.9h0.5c0,0.7,0.2,1.2,0.7,1.6s1.1,0.6,2,0.6c0.8,0,1.5-0.2,2.1-0.6S414.9,1217.5,415,1216.9z
			"/>
		<path class="st7" d="M424.9,1207.2l-0.4,2.6h2.1l-0.1,0.5h-2.1l-1.2,7v0.5c0,0.4,0.1,0.7,0.2,0.9s0.5,0.3,0.8,0.3
			c0.2,0,0.5,0,1-0.1v0.4c-0.3,0.1-0.6,0.1-1,0.1c-1,0-1.5-0.5-1.6-1.5c0-0.3,0-0.6,0.1-0.9l1.2-6.8h-1.7l0.1-0.5h1.7l0.4-2.6
			L424.9,1207.2L424.9,1207.2z"/>
		<path class="st7" d="M428,1219.2h-0.5l1.6-9.5h0.5L428,1219.2z M429.5,1206.7c0-0.1,0.1-0.2,0.2-0.3s0.2-0.1,0.3-0.1
			c0.1,0,0.2,0.1,0.3,0.2s0.1,0.2,0.1,0.4c0,0.1-0.1,0.2-0.2,0.3s-0.2,0.1-0.4,0.1c-0.1,0-0.2-0.1-0.3-0.2
			S429.4,1206.9,429.5,1206.7z"/>
		<path class="st7" d="M434.6,1219.4c-0.8,0-1.4-0.2-2-0.6s-0.9-1-1.2-1.8s-0.3-1.5-0.2-2.3l0.1-0.4c0.1-0.9,0.4-1.7,0.9-2.4
			s1-1.3,1.6-1.7s1.3-0.6,2-0.6c1,0,1.7,0.4,2.3,1.1s0.8,1.6,0.7,2.7v0.3l-0.1,0.6h-6.9l-0.1,0.5c-0.1,0.5-0.1,1,0,1.5
			c0.1,0.8,0.4,1.5,1,2s1.1,0.8,1.9,0.8c1.1,0,2.1-0.4,3-1.3l0.3,0.2C437,1218.9,435.9,1219.4,434.6,1219.4z M435.9,1210
			c-0.9,0-1.7,0.3-2.4,1s-1.2,1.6-1.6,2.7h6.4v-0.1c0.1-0.4,0.1-0.8,0-1.3c-0.1-0.7-0.4-1.2-0.8-1.7S436.5,1210,435.9,1210z"/>
		<path class="st7" d="M441.7,1211.9c0.5-0.8,1-1.4,1.7-1.8s1.3-0.6,2-0.6s1.3,0.2,1.7,0.6s0.7,0.9,0.7,1.6c0,0.4,0,0.9-0.1,1.4
			l-1.1,6.1h-0.5l1.1-6.1c0.1-0.4,0.1-0.8,0.1-1.2c0-0.6-0.2-1.1-0.5-1.4s-0.8-0.5-1.4-0.5c-0.8,0-1.6,0.3-2.3,0.9
			c-0.7,0.6-1.2,1.3-1.5,2.2l-1.1,6.1H440l1.6-9.5h0.5L441.7,1211.9z"/>
		<path class="st7" d="M450.1,1214.4c0.2-1,0.5-1.8,0.9-2.6s0.9-1.3,1.5-1.7s1.2-0.6,1.9-0.6c0.7,0,1.2,0.2,1.7,0.5s0.9,0.8,1.1,1.4
			l1-5.7h0.5l-2.3,13.5h-0.5l0.3-1.5c-0.4,0.5-0.9,0.9-1.5,1.2s-1.2,0.4-1.9,0.4c-0.6,0-1.1-0.2-1.6-0.5s-0.7-0.8-0.9-1.4
			s-0.3-1.2-0.3-2C450,1215.3,450,1214.9,450.1,1214.4z M450.4,1215.5c0,0.6,0,1.2,0.1,1.8s0.4,1,0.8,1.2s0.8,0.4,1.4,0.4
			c0.8,0,1.4-0.2,2.1-0.5s1.1-0.9,1.5-1.5l0.8-4.5c-0.1-0.8-0.4-1.4-0.9-1.8s-1.1-0.6-1.8-0.6c-0.7,0-1.4,0.2-2,0.7s-1,1.2-1.4,2.1
			S450.5,1214.6,450.4,1215.5z"/>
		<path class="st7" d="M465.3,1219.2c0-0.5,0-1.1,0.2-1.7c-0.5,0.6-1.1,1.1-1.8,1.4s-1.4,0.5-2.2,0.5c-0.8,0-1.4-0.2-1.9-0.7
			s-0.7-1.1-0.5-1.8c0.1-0.9,0.6-1.6,1.5-2.1s1.9-0.8,3.2-0.8h2.3l0.3-1.4c0.1-0.8,0-1.4-0.5-1.8s-1.1-0.7-1.9-0.7s-1.5,0.2-2.2,0.6
			s-1,1-1.2,1.7h-0.5c0.2-0.8,0.6-1.5,1.4-2s1.6-0.8,2.5-0.8c1,0,1.7,0.3,2.2,0.8s0.7,1.3,0.6,2.2l-0.9,5.1l-0.1,0.6
			c0,0.3,0,0.6,0,0.9v0.1L465.3,1219.2L465.3,1219.2z M461.5,1218.9c0.8,0,1.5-0.2,2.2-0.6s1.3-1,1.8-1.7l0.4-2.3h-2.1
			c-1.2,0-2.2,0.2-2.9,0.7s-1.2,1-1.4,1.8c-0.1,0.6,0,1.1,0.4,1.5S460.9,1218.9,461.5,1218.9z"/>
		<path class="st7" d="M474.8,1216.9c0.2-1.1-0.6-1.9-2.4-2.3l-1-0.3c-1.3-0.4-1.9-1.2-1.8-2.3c0.1-0.7,0.5-1.3,1.1-1.7
			s1.4-0.7,2.3-0.7c1,0,1.7,0.2,2.2,0.7s0.8,1.2,0.7,2h-0.5c0.1-0.7-0.1-1.2-0.6-1.6s-1.1-0.6-1.9-0.6s-1.4,0.2-2,0.5
			s-0.9,0.8-1,1.4c-0.2,0.9,0.4,1.6,1.6,2l1.3,0.4l0.4,0.1c1.4,0.5,2,1.3,1.8,2.5c-0.1,0.8-0.5,1.4-1.2,1.8s-1.5,0.7-2.4,0.7
			c-1,0-1.8-0.2-2.3-0.7s-0.8-1.1-0.8-1.9h0.5c0,0.7,0.2,1.2,0.7,1.6s1.1,0.6,2,0.6c0.8,0,1.5-0.2,2.1-0.6
			S474.7,1217.5,474.8,1216.9z"/>
	</g>
</g>
</svg>
