<svg xmlns="http://www.w3.org/2000/svg" width="24" height="24" viewBox="0 0 24 24"><g class="nc-icon-wrapper" fill="#111111"><path d="M20.355 13.411l-.846-.489a.321.321 0 0 1-.162-.311 7.246 7.246 0 0 0 .042-.8c0-.237-.01-.457-.03-.662l.995-.574a1.532 1.532 0 0 0 .562-2.089L19.5 6.024a1.529 1.529 0 0 0-2.094-.56l-.715.415a.323.323 0 0 1-.348-.042 7.084 7.084 0 0 0-1.15-.687.369.369 0 0 1-.229-.314v-.781a1.532 1.532 0 0 0-1.53-1.53H10.58a1.532 1.532 0 0 0-1.53 1.53v.78a.368.368 0 0 1-.229.315 7.112 7.112 0 0 0-1.157.687.331.331 0 0 1-.353.042L6.6 5.464a1.529 1.529 0 0 0-2.094.56L3.084 8.49a1.533 1.533 0 0 0 .562 2.09l.995.573c-.021.206-.03.425-.03.662a7.354 7.354 0 0 0 .042.8.32.32 0 0 1-.161.311l-.846.488a1.532 1.532 0 0 0-.563 2.086l1.422 2.47a1.533 1.533 0 0 0 2.09.562l.981-.566a.311.311 0 0 1 .316-.009 7.056 7.056 0 0 0 1 .557.307.307 0 0 1 .161.284v1.148a1.532 1.532 0 0 0 1.53 1.53h2.85a1.532 1.532 0 0 0 1.53-1.53V18.8a.308.308 0 0 1 .161-.284 7.039 7.039 0 0 0 .985-.554.306.306 0 0 1 .317.008l.982.565a1.533 1.533 0 0 0 2.089-.562l1.42-2.473a1.532 1.532 0 0 0-.562-2.089zm-.479 1.49l-1.422 2.469a.329.329 0 0 1-.451.122l-.981-.565a1.505 1.505 0 0 0-1.586.037 5.875 5.875 0 0 1-.816.459 1.505 1.505 0 0 0-.86 1.374v1.149a.33.33 0 0 1-.33.33h-2.85a.33.33 0 0 1-.33-.33V18.8a1.506 1.506 0 0 0-.862-1.375 5.831 5.831 0 0 1-.826-.461 1.452 1.452 0 0 0-.81-.241 1.553 1.553 0 0 0-.773.207L6 17.491a.332.332 0 0 1-.451-.121L4.124 14.9a.33.33 0 0 1 .122-.451l.846-.489a1.521 1.521 0 0 0 .753-1.48 6.1 6.1 0 0 1-.035-.666 4.722 4.722 0 0 1 .07-.869.6.6 0 0 0-.29-.631L4.245 9.54a.331.331 0 0 1-.121-.451l1.42-2.466a.325.325 0 0 1 .2-.154A.318.318 0 0 1 6 6.5l.713.414a1.523 1.523 0 0 0 1.662-.11 5.916 5.916 0 0 1 .962-.571 1.55 1.55 0 0 0 .917-1.4v-.78a.33.33 0 0 1 .33-.33h2.85a.33.33 0 0 1 .33.33v.781a1.55 1.55 0 0 0 .915 1.4 5.893 5.893 0 0 1 .955.571 1.519 1.519 0 0 0 1.661.112L18 6.5a.317.317 0 0 1 .251-.033.325.325 0 0 1 .2.154l1.42 2.466a.33.33 0 0 1-.121.45l-1.345.775a.6.6 0 0 0-.29.631 4.722 4.722 0 0 1 .07.869 5.994 5.994 0 0 1-.035.667 1.522 1.522 0 0 0 .754 1.48l.847.489a.33.33 0 0 1 .125.452zM12 7.928A4.072 4.072 0 1 0 16.072 12 4.076 4.076 0 0 0 12 7.928zm0 6.943A2.872 2.872 0 1 1 14.872 12 2.875 2.875 0 0 1 12 14.872z"/></g></svg>