<svg xmlns="http://www.w3.org/2000/svg" width="24" height="24" viewBox="0 0 24 24"><g class="nc-icon-wrapper" fill="#111111"><path d="M20.456 6.121l-8.159-4.642a.604.604 0 0 0-.594 0L3.544 6.121a1.6 1.6 0 0 0-.809 1.39v2.798a11.81 11.81 0 0 0 5.513 10.023l2.895 1.835c.26.165.558.247.856.247s.596-.082.856-.247l2.895-1.835a11.81 11.81 0 0 0 5.513-10.023V7.511a1.595 1.595 0 0 0-.807-1.39zm-.392 4.188c0 3.674-1.853 7.042-4.956 9.01l-2.895 1.835a.405.405 0 0 1-.429 0l-2.895-1.835a10.615 10.615 0 0 1-4.956-9.01V7.511a.4.4 0 0 1 .202-.348L12 2.69l7.863 4.473a.4.4 0 0 1 .202.348v2.798zm-3.937-1.186a.601.601 0 0 1 0 .849l-4.906 4.906a.6.6 0 0 1-.848 0l-2.5-2.5a.601.601 0 0 1 .849-.849l2.076 2.076 4.482-4.482a.597.597 0 0 1 .847 0z"/></g></svg>